<?xml version="1.0" encoding="utf-8" standalone="no"?>
<!DOCTYPE svg PUBLIC "-//W3C//DTD SVG 1.1//EN"
  "http://www.w3.org/Graphics/SVG/1.1/DTD/svg11.dtd">
<svg xmlns:xlink="http://www.w3.org/1999/xlink" width="117pt" height="117pt" viewBox="0 0 117 117" xmlns="http://www.w3.org/2000/svg" version="1.1">
 <metadata>
  <rdf:RDF xmlns:dc="http://purl.org/dc/elements/1.1/" xmlns:cc="http://creativecommons.org/ns#" xmlns:rdf="http://www.w3.org/1999/02/22-rdf-syntax-ns#">
   <cc:Work>
    <dc:type rdf:resource="http://purl.org/dc/dcmitype/StillImage"/>
    <dc:date>2026-05-07T09:55:08.061352</dc:date>
    <dc:format>image/svg+xml</dc:format>
    <dc:creator>
     <cc:Agent>
      <dc:title>Matplotlib v3.10.3, https://matplotlib.org/</dc:title>
     </cc:Agent>
    </dc:creator>
   </cc:Work>
  </rdf:RDF>
 </metadata>
 <defs>
  <style type="text/css">*{stroke-linejoin: round; stroke-linecap: butt}</style>
 </defs>
 <g id="figure_1">
  <g id="patch_1">
   <path d="M 0 117 
L 117 117 
L 117 0 
L 0 0 
L 0 117 
z
" style="fill: none"/>
  </g>
  <g id="axes_1">
   <g id="patch_2">
    <path d="M 29.25 91.26 
L 108.81 91.26 
L 108.81 11.7 
L 29.25 11.7 
L 29.25 91.26 
z
" style="fill: none"/>
   </g>
   <g id="FillBetweenPolyCollection_1">
    <path d="M 29.25 16.925944 
L 29.25 43.979754 
L 30.873673 47.130622 
L 32.497347 51.714359 
L 34.12102 53.832264 
L 35.744694 56.168176 
L 37.368367 59.634809 
L 38.992041 60.557619 
L 40.615714 62.724068 
L 42.239388 63.127429 
L 43.863061 65.991015 
L 45.486735 66.419098 
L 47.110408 67.864745 
L 48.734082 69.806335 
L 50.357755 69.841166 
L 51.981429 71.458264 
L 53.605102 71.216213 
L 55.228776 72.227024 
L 56.852449 72.451975 
L 58.476122 73.031243 
L 60.099796 73.194216 
L 61.723469 72.450063 
L 63.347143 74.231818 
L 64.970816 74.052572 
L 66.59449 74.295054 
L 68.218163 74.663664 
L 69.841837 74.972701 
L 71.46551 74.835406 
L 73.089184 74.445798 
L 74.712857 74.900219 
L 76.336531 75.105389 
L 77.960204 75.379925 
L 79.583878 75.374645 
L 81.207551 75.292577 
L 82.831224 75.536425 
L 84.454898 76.112698 
L 86.078571 75.470108 
L 87.702245 75.34815 
L 89.325918 75.327199 
L 90.949592 75.560084 
L 92.573265 75.951715 
L 94.196939 75.611841 
L 95.820612 75.795942 
L 97.444286 76.131484 
L 99.067959 75.862264 
L 100.691633 75.762889 
L 102.315306 75.185952 
L 103.93898 76.206378 
L 105.562653 74.871123 
L 107.186327 75.537104 
L 108.81 75.764253 
L 108.81 44.891698 
L 108.81 44.891698 
L 107.186327 43.983607 
L 105.562653 43.554905 
L 103.93898 45.324976 
L 102.315306 44.208076 
L 100.691633 44.423856 
L 99.067959 44.370068 
L 97.444286 44.478983 
L 95.820612 44.612564 
L 94.196939 44.446811 
L 92.573265 44.817484 
L 90.949592 44.352498 
L 89.325918 44.156814 
L 87.702245 44.912403 
L 86.078571 45.256138 
L 84.454898 46.072172 
L 82.831224 44.366677 
L 81.207551 44.703177 
L 79.583878 45.157735 
L 77.960204 45.265972 
L 76.336531 44.456677 
L 74.712857 44.321645 
L 73.089184 42.603998 
L 71.46551 44.540009 
L 69.841837 44.469253 
L 68.218163 44.159475 
L 66.59449 43.088708 
L 64.970816 42.435877 
L 63.347143 43.180948 
L 61.723469 40.875379 
L 60.099796 41.588889 
L 58.476122 41.289298 
L 56.852449 40.427377 
L 55.228776 39.555729 
L 53.605102 39.327786 
L 51.981429 39.565593 
L 50.357755 36.415036 
L 48.734082 37.598711 
L 47.110408 34.109126 
L 45.486735 32.188053 
L 43.863061 31.661017 
L 42.239388 28.036708 
L 40.615714 27.849002 
L 38.992041 25.862962 
L 37.368367 25.952956 
L 35.744694 22.420709 
L 34.12102 21.596222 
L 32.497347 20.29301 
L 30.873673 17.880917 
L 29.25 16.925944 
z
" clip-path="url(#p90188267e0)" style="fill: #1f77b4; fill-opacity: 0.15"/>
   </g>
   <g id="FillBetweenPolyCollection_2">
    <path d="M 29.25 56.825174 
L 29.25 66.063312 
L 30.873673 67.255129 
L 32.497347 67.778619 
L 34.12102 68.156752 
L 35.744694 68.719163 
L 37.368367 69.069883 
L 38.992041 69.05524 
L 40.615714 69.59246 
L 42.239388 69.84809 
L 43.863061 69.966251 
L 45.486735 70.506534 
L 47.110408 70.511338 
L 48.734082 70.822832 
L 50.357755 70.615883 
L 51.981429 71.025727 
L 53.605102 70.970143 
L 55.228776 71.265407 
L 56.852449 71.344703 
L 58.476122 71.748373 
L 60.099796 71.705198 
L 61.723469 71.974216 
L 63.347143 71.744032 
L 64.970816 71.930078 
L 66.59449 71.88216 
L 68.218163 72.149813 
L 69.841837 71.951403 
L 71.46551 72.252646 
L 73.089184 72.123107 
L 74.712857 72.243623 
L 76.336531 72.139334 
L 77.960204 72.157934 
L 79.583878 72.254168 
L 81.207551 72.158359 
L 82.831224 72.197017 
L 84.454898 72.271184 
L 86.078571 72.205118 
L 87.702245 72.259299 
L 89.325918 72.349422 
L 90.949592 72.646065 
L 92.573265 72.325641 
L 94.196939 72.531124 
L 95.820612 72.600223 
L 97.444286 72.563389 
L 99.067959 72.380327 
L 100.691633 72.844939 
L 102.315306 72.761782 
L 103.93898 72.992008 
L 105.562653 72.748804 
L 107.186327 72.965941 
L 108.81 72.687331 
L 108.81 57.858393 
L 108.81 57.858393 
L 107.186327 57.974554 
L 105.562653 57.835224 
L 103.93898 58.148132 
L 102.315306 57.885417 
L 100.691633 58.159071 
L 99.067959 57.429125 
L 97.444286 57.701137 
L 95.820612 57.786253 
L 94.196939 57.653544 
L 92.573265 57.645945 
L 90.949592 57.917293 
L 89.325918 57.546493 
L 87.702245 57.185796 
L 86.078571 57.444566 
L 84.454898 57.266881 
L 82.831224 57.332619 
L 81.207551 57.326279 
L 79.583878 57.28817 
L 77.960204 57.412207 
L 76.336531 57.025464 
L 74.712857 57.264353 
L 73.089184 57.018188 
L 71.46551 57.339415 
L 69.841837 56.879809 
L 68.218163 56.829362 
L 66.59449 56.559706 
L 64.970816 56.813618 
L 63.347143 56.394519 
L 61.723469 56.690998 
L 60.099796 56.189006 
L 58.476122 56.280962 
L 56.852449 56.065189 
L 55.228776 55.451306 
L 53.605102 54.8597 
L 51.981429 55.082314 
L 50.357755 54.963203 
L 48.734082 55.186016 
L 47.110408 54.609264 
L 45.486735 54.925876 
L 43.863061 54.823926 
L 42.239388 54.487628 
L 40.615714 55.181662 
L 38.992041 54.737536 
L 37.368367 55.494152 
L 35.744694 55.726638 
L 34.12102 55.733986 
L 32.497347 56.126354 
L 30.873673 56.657916 
L 29.25 56.825174 
z
" clip-path="url(#p90188267e0)" style="fill: #ff7f0e; fill-opacity: 0.15"/>
   </g>
   <g id="matplotlib.axis_1">
    <g id="xtick_1">
     <g id="line2d_1">
      <defs>
       <path id="m1fd602ba00" d="M 0 0 
L 0 -4 
" style="stroke: #000000"/>
      </defs>
      <g>
       <use xlink:href="#m1fd602ba00" x="29.25" y="91.26" style="stroke: #000000"/>
      </g>
     </g>
     <g id="line2d_2">
      <defs>
       <path id="m468289ce31" d="M 0 0 
L 0 4 
" style="stroke: #000000"/>
      </defs>
      <g>
       <use xlink:href="#m468289ce31" x="29.25" y="11.7" style="stroke: #000000"/>
      </g>
     </g>
     <g id="text_1">
      <!-- 1 -->
      <g transform="translate(27.023125 100.078906) scale(0.07 -0.07)">
       <defs>
        <path id="DejaVuSans-31" d="M 794 531 
L 1825 531 
L 1825 4091 
L 703 3866 
L 703 4441 
L 1819 4666 
L 2450 4666 
L 2450 531 
L 3481 531 
L 3481 0 
L 794 0 
L 794 531 
z
" transform="scale(0.015625)"/>
       </defs>
       <use xlink:href="#DejaVuSans-31"/>
      </g>
     </g>
    </g>
    <g id="xtick_2">
     <g id="line2d_3">
      <g>
       <use xlink:href="#m1fd602ba00" x="108.81" y="91.26" style="stroke: #000000"/>
      </g>
     </g>
     <g id="line2d_4">
      <g>
       <use xlink:href="#m468289ce31" x="108.81" y="11.7" style="stroke: #000000"/>
      </g>
     </g>
     <g id="text_2">
      <!-- 50 -->
      <g transform="translate(104.35625 100.078906) scale(0.07 -0.07)">
       <defs>
        <path id="DejaVuSans-35" d="M 691 4666 
L 3169 4666 
L 3169 4134 
L 1269 4134 
L 1269 2991 
Q 1406 3038 1543 3061 
Q 1681 3084 1819 3084 
Q 2600 3084 3056 2656 
Q 3513 2228 3513 1497 
Q 3513 744 3044 326 
Q 2575 -91 1722 -91 
Q 1428 -91 1123 -41 
Q 819 9 494 109 
L 494 744 
Q 775 591 1075 516 
Q 1375 441 1709 441 
Q 2250 441 2565 725 
Q 2881 1009 2881 1497 
Q 2881 1984 2565 2268 
Q 2250 2553 1709 2553 
Q 1456 2553 1204 2497 
Q 953 2441 691 2322 
L 691 4666 
z
" transform="scale(0.015625)"/>
        <path id="DejaVuSans-30" d="M 2034 4250 
Q 1547 4250 1301 3770 
Q 1056 3291 1056 2328 
Q 1056 1369 1301 889 
Q 1547 409 2034 409 
Q 2525 409 2770 889 
Q 3016 1369 3016 2328 
Q 3016 3291 2770 3770 
Q 2525 4250 2034 4250 
z
M 2034 4750 
Q 2819 4750 3233 4129 
Q 3647 3509 3647 2328 
Q 3647 1150 3233 529 
Q 2819 -91 2034 -91 
Q 1250 -91 836 529 
Q 422 1150 422 2328 
Q 422 3509 836 4129 
Q 1250 4750 2034 4750 
z
" transform="scale(0.015625)"/>
       </defs>
       <use xlink:href="#DejaVuSans-35"/>
       <use xlink:href="#DejaVuSans-30" transform="translate(63.623047 0)"/>
      </g>
     </g>
    </g>
    <g id="text_3">
     <!-- Time Step ($t$) -->
     <g transform="translate(46.035 110.854687) scale(0.07 -0.07)">
      <defs>
       <path id="DejaVuSans-54" d="M -19 4666 
L 3928 4666 
L 3928 4134 
L 2272 4134 
L 2272 0 
L 1638 0 
L 1638 4134 
L -19 4134 
L -19 4666 
z
" transform="scale(0.015625)"/>
       <path id="DejaVuSans-69" d="M 603 3500 
L 1178 3500 
L 1178 0 
L 603 0 
L 603 3500 
z
M 603 4863 
L 1178 4863 
L 1178 4134 
L 603 4134 
L 603 4863 
z
" transform="scale(0.015625)"/>
       <path id="DejaVuSans-6d" d="M 3328 2828 
Q 3544 3216 3844 3400 
Q 4144 3584 4550 3584 
Q 5097 3584 5394 3201 
Q 5691 2819 5691 2113 
L 5691 0 
L 5113 0 
L 5113 2094 
Q 5113 2597 4934 2840 
Q 4756 3084 4391 3084 
Q 3944 3084 3684 2787 
Q 3425 2491 3425 1978 
L 3425 0 
L 2847 0 
L 2847 2094 
Q 2847 2600 2669 2842 
Q 2491 3084 2119 3084 
Q 1678 3084 1418 2786 
Q 1159 2488 1159 1978 
L 1159 0 
L 581 0 
L 581 3500 
L 1159 3500 
L 1159 2956 
Q 1356 3278 1631 3431 
Q 1906 3584 2284 3584 
Q 2666 3584 2933 3390 
Q 3200 3197 3328 2828 
z
" transform="scale(0.015625)"/>
       <path id="DejaVuSans-65" d="M 3597 1894 
L 3597 1613 
L 953 1613 
Q 991 1019 1311 708 
Q 1631 397 2203 397 
Q 2534 397 2845 478 
Q 3156 559 3463 722 
L 3463 178 
Q 3153 47 2828 -22 
Q 2503 -91 2169 -91 
Q 1331 -91 842 396 
Q 353 884 353 1716 
Q 353 2575 817 3079 
Q 1281 3584 2069 3584 
Q 2775 3584 3186 3129 
Q 3597 2675 3597 1894 
z
M 3022 2063 
Q 3016 2534 2758 2815 
Q 2500 3097 2075 3097 
Q 1594 3097 1305 2825 
Q 1016 2553 972 2059 
L 3022 2063 
z
" transform="scale(0.015625)"/>
       <path id="DejaVuSans-20" transform="scale(0.015625)"/>
       <path id="DejaVuSans-53" d="M 3425 4513 
L 3425 3897 
Q 3066 4069 2747 4153 
Q 2428 4238 2131 4238 
Q 1616 4238 1336 4038 
Q 1056 3838 1056 3469 
Q 1056 3159 1242 3001 
Q 1428 2844 1947 2747 
L 2328 2669 
Q 3034 2534 3370 2195 
Q 3706 1856 3706 1288 
Q 3706 609 3251 259 
Q 2797 -91 1919 -91 
Q 1588 -91 1214 -16 
Q 841 59 441 206 
L 441 856 
Q 825 641 1194 531 
Q 1563 422 1919 422 
Q 2459 422 2753 634 
Q 3047 847 3047 1241 
Q 3047 1584 2836 1778 
Q 2625 1972 2144 2069 
L 1759 2144 
Q 1053 2284 737 2584 
Q 422 2884 422 3419 
Q 422 4038 858 4394 
Q 1294 4750 2059 4750 
Q 2388 4750 2728 4690 
Q 3069 4631 3425 4513 
z
" transform="scale(0.015625)"/>
       <path id="DejaVuSans-74" d="M 1172 4494 
L 1172 3500 
L 2356 3500 
L 2356 3053 
L 1172 3053 
L 1172 1153 
Q 1172 725 1289 603 
Q 1406 481 1766 481 
L 2356 481 
L 2356 0 
L 1766 0 
Q 1100 0 847 248 
Q 594 497 594 1153 
L 594 3053 
L 172 3053 
L 172 3500 
L 594 3500 
L 594 4494 
L 1172 4494 
z
" transform="scale(0.015625)"/>
       <path id="DejaVuSans-70" d="M 1159 525 
L 1159 -1331 
L 581 -1331 
L 581 3500 
L 1159 3500 
L 1159 2969 
Q 1341 3281 1617 3432 
Q 1894 3584 2278 3584 
Q 2916 3584 3314 3078 
Q 3713 2572 3713 1747 
Q 3713 922 3314 415 
Q 2916 -91 2278 -91 
Q 1894 -91 1617 61 
Q 1341 213 1159 525 
z
M 3116 1747 
Q 3116 2381 2855 2742 
Q 2594 3103 2138 3103 
Q 1681 3103 1420 2742 
Q 1159 2381 1159 1747 
Q 1159 1113 1420 752 
Q 1681 391 2138 391 
Q 2594 391 2855 752 
Q 3116 1113 3116 1747 
z
" transform="scale(0.015625)"/>
       <path id="DejaVuSans-28" d="M 1984 4856 
Q 1566 4138 1362 3434 
Q 1159 2731 1159 2009 
Q 1159 1288 1364 580 
Q 1569 -128 1984 -844 
L 1484 -844 
Q 1016 -109 783 600 
Q 550 1309 550 2009 
Q 550 2706 781 3412 
Q 1013 4119 1484 4856 
L 1984 4856 
z
" transform="scale(0.015625)"/>
       <path id="DejaVuSans-Oblique-74" d="M 2706 3500 
L 2619 3053 
L 1472 3053 
L 1100 1153 
Q 1081 1047 1072 975 
Q 1063 903 1063 863 
Q 1063 663 1183 572 
Q 1303 481 1569 481 
L 2150 481 
L 2053 0 
L 1503 0 
Q 991 0 739 200 
Q 488 400 488 806 
Q 488 878 497 964 
Q 506 1050 525 1153 
L 897 3053 
L 409 3053 
L 500 3500 
L 978 3500 
L 1172 4494 
L 1747 4494 
L 1556 3500 
L 2706 3500 
z
" transform="scale(0.015625)"/>
       <path id="DejaVuSans-29" d="M 513 4856 
L 1013 4856 
Q 1481 4119 1714 3412 
Q 1947 2706 1947 2009 
Q 1947 1309 1714 600 
Q 1481 -109 1013 -844 
L 513 -844 
Q 928 -128 1133 580 
Q 1338 1288 1338 2009 
Q 1338 2731 1133 3434 
Q 928 4138 513 4856 
z
" transform="scale(0.015625)"/>
      </defs>
      <use xlink:href="#DejaVuSans-54" transform="translate(0 0.015625)"/>
      <use xlink:href="#DejaVuSans-69" transform="translate(61.083984 0.015625)"/>
      <use xlink:href="#DejaVuSans-6d" transform="translate(88.867188 0.015625)"/>
      <use xlink:href="#DejaVuSans-65" transform="translate(186.279297 0.015625)"/>
      <use xlink:href="#DejaVuSans-20" transform="translate(247.802734 0.015625)"/>
      <use xlink:href="#DejaVuSans-53" transform="translate(279.589844 0.015625)"/>
      <use xlink:href="#DejaVuSans-74" transform="translate(343.066406 0.015625)"/>
      <use xlink:href="#DejaVuSans-65" transform="translate(382.275391 0.015625)"/>
      <use xlink:href="#DejaVuSans-70" transform="translate(443.798828 0.015625)"/>
      <use xlink:href="#DejaVuSans-20" transform="translate(507.275391 0.015625)"/>
      <use xlink:href="#DejaVuSans-28" transform="translate(539.0625 0.015625)"/>
      <use xlink:href="#DejaVuSans-Oblique-74" transform="translate(578.076172 0.015625)"/>
      <use xlink:href="#DejaVuSans-29" transform="translate(617.285156 0.015625)"/>
     </g>
    </g>
   </g>
   <g id="matplotlib.axis_2">
    <g id="ytick_1">
     <g id="line2d_5">
      <defs>
       <path id="mc4780027fe" d="M 0 0 
L 4 0 
" style="stroke: #000000"/>
      </defs>
      <g>
       <use xlink:href="#mc4780027fe" x="29.25" y="91.26" style="stroke: #000000"/>
      </g>
     </g>
     <g id="line2d_6">
      <defs>
       <path id="m4371dca154" d="M 0 0 
L -4 0 
" style="stroke: #000000"/>
      </defs>
      <g>
       <use xlink:href="#m4371dca154" x="108.81" y="91.26" style="stroke: #000000"/>
      </g>
     </g>
     <g id="text_4">
      <!-- 0.0 -->
      <g transform="translate(14.617812 93.919453) scale(0.07 -0.07)">
       <defs>
        <path id="DejaVuSans-2e" d="M 684 794 
L 1344 794 
L 1344 0 
L 684 0 
L 684 794 
z
" transform="scale(0.015625)"/>
       </defs>
       <use xlink:href="#DejaVuSans-30"/>
       <use xlink:href="#DejaVuSans-2e" transform="translate(63.623047 0)"/>
       <use xlink:href="#DejaVuSans-30" transform="translate(95.410156 0)"/>
      </g>
     </g>
    </g>
    <g id="ytick_2">
     <g id="line2d_7">
      <g>
       <use xlink:href="#mc4780027fe" x="29.25" y="71.37" style="stroke: #000000"/>
      </g>
     </g>
     <g id="line2d_8">
      <g>
       <use xlink:href="#m4371dca154" x="108.81" y="71.37" style="stroke: #000000"/>
      </g>
     </g>
     <g id="text_5">
      <!-- 0.1 -->
      <g transform="translate(14.617812 74.029453) scale(0.07 -0.07)">
       <use xlink:href="#DejaVuSans-30"/>
       <use xlink:href="#DejaVuSans-2e" transform="translate(63.623047 0)"/>
       <use xlink:href="#DejaVuSans-31" transform="translate(95.410156 0)"/>
      </g>
     </g>
    </g>
    <g id="ytick_3">
     <g id="line2d_9">
      <g>
       <use xlink:href="#mc4780027fe" x="29.25" y="51.48" style="stroke: #000000"/>
      </g>
     </g>
     <g id="line2d_10">
      <g>
       <use xlink:href="#m4371dca154" x="108.81" y="51.48" style="stroke: #000000"/>
      </g>
     </g>
     <g id="text_6">
      <!-- 0.2 -->
      <g transform="translate(14.617812 54.139453) scale(0.07 -0.07)">
       <defs>
        <path id="DejaVuSans-32" d="M 1228 531 
L 3431 531 
L 3431 0 
L 469 0 
L 469 531 
Q 828 903 1448 1529 
Q 2069 2156 2228 2338 
Q 2531 2678 2651 2914 
Q 2772 3150 2772 3378 
Q 2772 3750 2511 3984 
Q 2250 4219 1831 4219 
Q 1534 4219 1204 4116 
Q 875 4013 500 3803 
L 500 4441 
Q 881 4594 1212 4672 
Q 1544 4750 1819 4750 
Q 2544 4750 2975 4387 
Q 3406 4025 3406 3419 
Q 3406 3131 3298 2873 
Q 3191 2616 2906 2266 
Q 2828 2175 2409 1742 
Q 1991 1309 1228 531 
z
" transform="scale(0.015625)"/>
       </defs>
       <use xlink:href="#DejaVuSans-30"/>
       <use xlink:href="#DejaVuSans-2e" transform="translate(63.623047 0)"/>
       <use xlink:href="#DejaVuSans-32" transform="translate(95.410156 0)"/>
      </g>
     </g>
    </g>
    <g id="ytick_4">
     <g id="line2d_11">
      <g>
       <use xlink:href="#mc4780027fe" x="29.25" y="31.59" style="stroke: #000000"/>
      </g>
     </g>
     <g id="line2d_12">
      <g>
       <use xlink:href="#m4371dca154" x="108.81" y="31.59" style="stroke: #000000"/>
      </g>
     </g>
     <g id="text_7">
      <!-- 0.3 -->
      <g transform="translate(14.617812 34.249453) scale(0.07 -0.07)">
       <defs>
        <path id="DejaVuSans-33" d="M 2597 2516 
Q 3050 2419 3304 2112 
Q 3559 1806 3559 1356 
Q 3559 666 3084 287 
Q 2609 -91 1734 -91 
Q 1441 -91 1130 -33 
Q 819 25 488 141 
L 488 750 
Q 750 597 1062 519 
Q 1375 441 1716 441 
Q 2309 441 2620 675 
Q 2931 909 2931 1356 
Q 2931 1769 2642 2001 
Q 2353 2234 1838 2234 
L 1294 2234 
L 1294 2753 
L 1863 2753 
Q 2328 2753 2575 2939 
Q 2822 3125 2822 3475 
Q 2822 3834 2567 4026 
Q 2313 4219 1838 4219 
Q 1578 4219 1281 4162 
Q 984 4106 628 3988 
L 628 4550 
Q 988 4650 1302 4700 
Q 1616 4750 1894 4750 
Q 2613 4750 3031 4423 
Q 3450 4097 3450 3541 
Q 3450 3153 3228 2886 
Q 3006 2619 2597 2516 
z
" transform="scale(0.015625)"/>
       </defs>
       <use xlink:href="#DejaVuSans-30"/>
       <use xlink:href="#DejaVuSans-2e" transform="translate(63.623047 0)"/>
       <use xlink:href="#DejaVuSans-33" transform="translate(95.410156 0)"/>
      </g>
     </g>
    </g>
    <g id="ytick_5">
     <g id="line2d_13">
      <g>
       <use xlink:href="#mc4780027fe" x="29.25" y="11.7" style="stroke: #000000"/>
      </g>
     </g>
     <g id="line2d_14">
      <g>
       <use xlink:href="#m4371dca154" x="108.81" y="11.7" style="stroke: #000000"/>
      </g>
     </g>
     <g id="text_8">
      <!-- 0.4 -->
      <g transform="translate(14.617812 14.359453) scale(0.07 -0.07)">
       <defs>
        <path id="DejaVuSans-34" d="M 2419 4116 
L 825 1625 
L 2419 1625 
L 2419 4116 
z
M 2253 4666 
L 3047 4666 
L 3047 1625 
L 3713 1625 
L 3713 1100 
L 3047 1100 
L 3047 0 
L 2419 0 
L 2419 1100 
L 313 1100 
L 313 1709 
L 2253 4666 
z
" transform="scale(0.015625)"/>
       </defs>
       <use xlink:href="#DejaVuSans-30"/>
       <use xlink:href="#DejaVuSans-2e" transform="translate(63.623047 0)"/>
       <use xlink:href="#DejaVuSans-34" transform="translate(95.410156 0)"/>
      </g>
     </g>
    </g>
    <g id="text_9">
     <!-- $\hat{\mu}_{\mathrm{error}}$ -->
     <g transform="translate(9.147812 59.88) rotate(-90) scale(0.07 -0.07)">
      <defs>
       <path id="DejaVuSans-302" d="M -1831 5119 
L -1369 5119 
L -603 3944 
L -1038 3944 
L -1600 4709 
L -2163 3944 
L -2597 3944 
L -1831 5119 
z
M -1600 3584 
L -1600 3584 
z
" transform="scale(0.015625)"/>
       <path id="DejaVuSans-Oblique-3bc" d="M -84 -1331 
L 856 3500 
L 1434 3500 
L 1009 1322 
Q 997 1256 987 1175 
Q 978 1094 978 1013 
Q 978 722 1161 565 
Q 1344 409 1684 409 
Q 2147 409 2431 671 
Q 2716 934 2816 1459 
L 3213 3500 
L 3788 3500 
L 3266 809 
Q 3253 750 3248 706 
Q 3244 663 3244 628 
Q 3244 531 3283 486 
Q 3322 441 3406 441 
Q 3438 441 3492 456 
Q 3547 472 3647 513 
L 3559 50 
Q 3422 -19 3297 -55 
Q 3172 -91 3053 -91 
Q 2847 -91 2730 40 
Q 2613 172 2613 403 
Q 2438 153 2195 31 
Q 1953 -91 1625 -91 
Q 1334 -91 1117 43 
Q 900 178 831 397 
L 494 -1331 
L -84 -1331 
z
" transform="scale(0.015625)"/>
       <path id="DejaVuSans-72" d="M 2631 2963 
Q 2534 3019 2420 3045 
Q 2306 3072 2169 3072 
Q 1681 3072 1420 2755 
Q 1159 2438 1159 1844 
L 1159 0 
L 581 0 
L 581 3500 
L 1159 3500 
L 1159 2956 
Q 1341 3275 1631 3429 
Q 1922 3584 2338 3584 
Q 2397 3584 2469 3576 
Q 2541 3569 2628 3553 
L 2631 2963 
z
" transform="scale(0.015625)"/>
       <path id="DejaVuSans-6f" d="M 1959 3097 
Q 1497 3097 1228 2736 
Q 959 2375 959 1747 
Q 959 1119 1226 758 
Q 1494 397 1959 397 
Q 2419 397 2687 759 
Q 2956 1122 2956 1747 
Q 2956 2369 2687 2733 
Q 2419 3097 1959 3097 
z
M 1959 3584 
Q 2709 3584 3137 3096 
Q 3566 2609 3566 1747 
Q 3566 888 3137 398 
Q 2709 -91 1959 -91 
Q 1206 -91 779 398 
Q 353 888 353 1747 
Q 353 2609 779 3096 
Q 1206 3584 1959 3584 
z
" transform="scale(0.015625)"/>
      </defs>
      <use xlink:href="#DejaVuSans-302" transform="translate(64.483887 12.015625)"/>
      <use xlink:href="#DejaVuSans-Oblique-3bc" transform="translate(0 0.828125)"/>
      <use xlink:href="#DejaVuSans-65" transform="translate(64.580078 -15.578125) scale(0.7)"/>
      <use xlink:href="#DejaVuSans-72" transform="translate(107.646484 -15.578125) scale(0.7)"/>
      <use xlink:href="#DejaVuSans-72" transform="translate(136.425781 -15.578125) scale(0.7)"/>
      <use xlink:href="#DejaVuSans-6f" transform="translate(165.205078 -15.578125) scale(0.7)"/>
      <use xlink:href="#DejaVuSans-72" transform="translate(208.032227 -15.578125) scale(0.7)"/>
     </g>
    </g>
   </g>
   <g id="line2d_15">
    <path d="M 29.25 30.452849 
L 30.873673 32.505771 
L 32.497347 36.003684 
L 34.12102 37.714241 
L 35.744694 39.294443 
L 37.368367 42.793883 
L 38.992041 43.21029 
L 40.615714 45.286535 
L 42.239388 45.582069 
L 43.863061 48.826016 
L 45.486735 49.303577 
L 47.110408 50.986935 
L 48.734082 53.702522 
L 50.357755 53.128099 
L 51.981429 55.511929 
L 53.605102 55.272 
L 55.228776 55.891377 
L 56.852449 56.439676 
L 58.476122 57.160272 
L 60.099796 57.391552 
L 61.723469 56.662723 
L 63.347143 58.706383 
L 64.970816 58.244225 
L 66.59449 58.691881 
L 68.218163 59.41157 
L 69.841837 59.720977 
L 71.46551 59.687708 
L 73.089184 58.524898 
L 74.712857 59.610933 
L 76.336531 59.781033 
L 77.960204 60.322948 
L 79.583878 60.26619 
L 81.207551 59.997877 
L 82.831224 59.951552 
L 84.454898 61.092435 
L 86.078571 60.363123 
L 87.702245 60.130277 
L 89.325918 59.742005 
L 90.949592 59.956291 
L 92.573265 60.384599 
L 94.196939 60.029326 
L 95.820612 60.204252 
L 97.444286 60.305233 
L 99.067959 60.116167 
L 100.691633 60.093372 
L 102.315306 59.697014 
L 103.93898 60.765678 
L 105.562653 59.213013 
L 107.186327 59.760355 
L 108.81 60.327975 
" clip-path="url(#p90188267e0)" style="fill: none; stroke: #1f77b4; stroke-width: 1.5; stroke-linecap: square"/>
   </g>
   <g id="line2d_16">
    <path d="M 29.25 61.444243 
L 30.873673 61.956522 
L 32.497347 61.952485 
L 34.12102 61.945369 
L 35.744694 62.2229 
L 37.368367 62.282017 
L 38.992041 61.896389 
L 40.615714 62.387062 
L 42.239388 62.167859 
L 43.863061 62.395088 
L 45.486735 62.716205 
L 47.110408 62.560301 
L 48.734082 63.004424 
L 50.357755 62.789542 
L 51.981429 63.054021 
L 53.605102 62.914922 
L 55.228776 63.358357 
L 56.852449 63.704945 
L 58.476122 64.014667 
L 60.099796 63.947103 
L 61.723469 64.332607 
L 63.347143 64.069275 
L 64.970816 64.371848 
L 66.59449 64.220932 
L 68.218163 64.489587 
L 69.841837 64.415606 
L 71.46551 64.79603 
L 73.089184 64.570648 
L 74.712857 64.753988 
L 76.336531 64.582399 
L 77.960204 64.78507 
L 79.583878 64.771169 
L 81.207551 64.742319 
L 82.831224 64.764818 
L 84.454898 64.769032 
L 86.078571 64.824842 
L 87.702245 64.722548 
L 89.325918 64.947957 
L 90.949592 65.281679 
L 92.573265 64.985793 
L 94.196939 65.092334 
L 95.820612 65.193238 
L 97.444286 65.132263 
L 99.067959 64.904726 
L 100.691633 65.502005 
L 102.315306 65.3236 
L 103.93898 65.57007 
L 105.562653 65.292014 
L 107.186327 65.470248 
L 108.81 65.272862 
" clip-path="url(#p90188267e0)" style="fill: none; stroke: #ff7f0e; stroke-width: 1.5; stroke-linecap: square"/>
   </g>
   <g id="patch_3">
    <path d="M 29.25 91.26 
L 29.25 11.7 
" style="fill: none; stroke: #000000; stroke-linejoin: miter; stroke-linecap: square"/>
   </g>
   <g id="patch_4">
    <path d="M 108.81 91.26 
L 108.81 11.7 
" style="fill: none; stroke: #000000; stroke-linejoin: miter; stroke-linecap: square"/>
   </g>
   <g id="patch_5">
    <path d="M 29.25 91.26 
L 108.81 91.26 
" style="fill: none; stroke: #000000; stroke-linejoin: miter; stroke-linecap: square"/>
   </g>
   <g id="patch_6">
    <path d="M 29.25 11.7 
L 108.81 11.7 
" style="fill: none; stroke: #000000; stroke-linejoin: miter; stroke-linecap: square"/>
   </g>
   <g id="legend_1">
    <g id="line2d_17">
     <path d="M 77.19 19.559062 
L 83.19 19.559062 
L 89.19 19.559062 
" style="fill: none; stroke: #1f77b4; stroke-width: 1.5; stroke-linecap: square"/>
    </g>
    <g id="text_10">
     <!-- $1^{\mathrm{st}}$ -->
     <g transform="translate(93.99 21.659062) scale(0.06 -0.06)">
      <defs>
       <path id="DejaVuSans-73" d="M 2834 3397 
L 2834 2853 
Q 2591 2978 2328 3040 
Q 2066 3103 1784 3103 
Q 1356 3103 1142 2972 
Q 928 2841 928 2578 
Q 928 2378 1081 2264 
Q 1234 2150 1697 2047 
L 1894 2003 
Q 2506 1872 2764 1633 
Q 3022 1394 3022 966 
Q 3022 478 2636 193 
Q 2250 -91 1575 -91 
Q 1294 -91 989 -36 
Q 684 19 347 128 
L 347 722 
Q 666 556 975 473 
Q 1284 391 1588 391 
Q 1994 391 2212 530 
Q 2431 669 2431 922 
Q 2431 1156 2273 1281 
Q 2116 1406 1581 1522 
L 1381 1569 
Q 847 1681 609 1914 
Q 372 2147 372 2553 
Q 372 3047 722 3315 
Q 1072 3584 1716 3584 
Q 2034 3584 2315 3537 
Q 2597 3491 2834 3397 
z
" transform="scale(0.015625)"/>
      </defs>
      <use xlink:href="#DejaVuSans-31" transform="translate(0 0.565625)"/>
      <use xlink:href="#DejaVuSans-73" transform="translate(64.580078 38.846875) scale(0.7)"/>
      <use xlink:href="#DejaVuSans-74" transform="translate(101.049805 38.846875) scale(0.7)"/>
     </g>
    </g>
    <g id="line2d_18">
     <path d="M 77.19 28.365937 
L 83.19 28.365937 
L 89.19 28.365937 
" style="fill: none; stroke: #ff7f0e; stroke-width: 1.5; stroke-linecap: square"/>
    </g>
    <g id="text_11">
     <!-- $2^{\mathrm{nd}}$ -->
     <g transform="translate(93.99 30.465937) scale(0.06 -0.06)">
      <defs>
       <path id="DejaVuSans-6e" d="M 3513 2113 
L 3513 0 
L 2938 0 
L 2938 2094 
Q 2938 2591 2744 2837 
Q 2550 3084 2163 3084 
Q 1697 3084 1428 2787 
Q 1159 2491 1159 1978 
L 1159 0 
L 581 0 
L 581 3500 
L 1159 3500 
L 1159 2956 
Q 1366 3272 1645 3428 
Q 1925 3584 2291 3584 
Q 2894 3584 3203 3211 
Q 3513 2838 3513 2113 
z
" transform="scale(0.015625)"/>
       <path id="DejaVuSans-64" d="M 2906 2969 
L 2906 4863 
L 3481 4863 
L 3481 0 
L 2906 0 
L 2906 525 
Q 2725 213 2448 61 
Q 2172 -91 1784 -91 
Q 1150 -91 751 415 
Q 353 922 353 1747 
Q 353 2572 751 3078 
Q 1150 3584 1784 3584 
Q 2172 3584 2448 3432 
Q 2725 3281 2906 2969 
z
M 947 1747 
Q 947 1113 1208 752 
Q 1469 391 1925 391 
Q 2381 391 2643 752 
Q 2906 1113 2906 1747 
Q 2906 2381 2643 2742 
Q 2381 3103 1925 3103 
Q 1469 3103 1208 2742 
Q 947 2381 947 1747 
z
" transform="scale(0.015625)"/>
      </defs>
      <use xlink:href="#DejaVuSans-32" transform="translate(0 0.529687)"/>
      <use xlink:href="#DejaVuSans-6e" transform="translate(64.580078 38.810937) scale(0.7)"/>
      <use xlink:href="#DejaVuSans-64" transform="translate(108.945312 38.810937) scale(0.7)"/>
     </g>
    </g>
   </g>
  </g>
 </g>
 <defs>
  <clipPath id="p90188267e0">
   <rect x="29.25" y="11.7" width="79.56" height="79.56"/>
  </clipPath>
 </defs>
</svg>
