<?xml version="1.0" encoding="utf-8" standalone="no"?>
<!DOCTYPE svg PUBLIC "-//W3C//DTD SVG 1.1//EN"
  "http://www.w3.org/Graphics/SVG/1.1/DTD/svg11.dtd">
<svg xmlns:xlink="http://www.w3.org/1999/xlink" width="596.198125pt" height="379.89875pt" viewBox="0 0 596.198125 379.89875" xmlns="http://www.w3.org/2000/svg" version="1.1">
 <metadata>
  <rdf:RDF xmlns:dc="http://purl.org/dc/elements/1.1/" xmlns:cc="http://creativecommons.org/ns#" xmlns:rdf="http://www.w3.org/1999/02/22-rdf-syntax-ns#">
   <cc:Work>
    <dc:type rdf:resource="http://purl.org/dc/dcmitype/StillImage"/>
    <dc:date>2026-05-07T10:54:32.148461</dc:date>
    <dc:format>image/svg+xml</dc:format>
    <dc:creator>
     <cc:Agent>
      <dc:title>Matplotlib v3.10.3, https://matplotlib.org/</dc:title>
     </cc:Agent>
    </dc:creator>
   </cc:Work>
  </rdf:RDF>
 </metadata>
 <defs>
  <style type="text/css">*{stroke-linejoin: round; stroke-linecap: butt}</style>
 </defs>
 <g id="figure_1">
  <g id="patch_1">
   <path d="M 0 379.89875 
L 596.198125 379.89875 
L 596.198125 0 
L 0 0 
z
" style="fill: #ffffff"/>
  </g>
  <g id="axes_1">
   <g id="patch_2">
    <path d="M 54.971875 338.1 
L 575.636875 338.1 
L 575.636875 7.2 
L 54.971875 7.2 
z
" style="fill: #ffffff"/>
   </g>
   <g id="matplotlib.axis_1">
    <g id="xtick_1">
     <g id="line2d_1">
      <defs>
       <path id="m3b3200ab99" d="M 0 0 
L 0 -8 
" style="stroke: #303030; stroke-width: 1.2"/>
      </defs>
      <g>
       <use xlink:href="#m3b3200ab99" x="54.971875" y="338.1" style="fill: #303030; stroke: #303030; stroke-width: 1.2"/>
      </g>
     </g>
     <g id="line2d_2">
      <defs>
       <path id="m2a7d5a40a9" d="M 0 0 
L 0 8 
" style="stroke: #303030; stroke-width: 1.2"/>
      </defs>
      <g>
       <use xlink:href="#m2a7d5a40a9" x="54.971875" y="7.2" style="fill: #303030; stroke: #303030; stroke-width: 1.2"/>
      </g>
     </g>
     <g id="text_1">
      <!-- 0 -->
      <g style="fill: #303030" transform="translate(50.518125 352.237812) scale(0.14 -0.14)">
       <defs>
        <path id="DejaVuSans-30" d="M 2034 4250 
Q 1547 4250 1301 3770 
Q 1056 3291 1056 2328 
Q 1056 1369 1301 889 
Q 1547 409 2034 409 
Q 2525 409 2770 889 
Q 3016 1369 3016 2328 
Q 3016 3291 2770 3770 
Q 2525 4250 2034 4250 
z
M 2034 4750 
Q 2819 4750 3233 4129 
Q 3647 3509 3647 2328 
Q 3647 1150 3233 529 
Q 2819 -91 2034 -91 
Q 1250 -91 836 529 
Q 422 1150 422 2328 
Q 422 3509 836 4129 
Q 1250 4750 2034 4750 
z
" transform="scale(0.015625)"/>
       </defs>
       <use xlink:href="#DejaVuSans-30"/>
      </g>
     </g>
    </g>
    <g id="xtick_2">
     <g id="line2d_3">
      <g>
       <use xlink:href="#m3b3200ab99" x="120.055" y="338.1" style="fill: #303030; stroke: #303030; stroke-width: 1.2"/>
      </g>
     </g>
     <g id="line2d_4">
      <g>
       <use xlink:href="#m2a7d5a40a9" x="120.055" y="7.2" style="fill: #303030; stroke: #303030; stroke-width: 1.2"/>
      </g>
     </g>
     <g id="text_2">
      <!-- 50 -->
      <g style="fill: #303030" transform="translate(111.1475 352.237812) scale(0.14 -0.14)">
       <defs>
        <path id="DejaVuSans-35" d="M 691 4666 
L 3169 4666 
L 3169 4134 
L 1269 4134 
L 1269 2991 
Q 1406 3038 1543 3061 
Q 1681 3084 1819 3084 
Q 2600 3084 3056 2656 
Q 3513 2228 3513 1497 
Q 3513 744 3044 326 
Q 2575 -91 1722 -91 
Q 1428 -91 1123 -41 
Q 819 9 494 109 
L 494 744 
Q 775 591 1075 516 
Q 1375 441 1709 441 
Q 2250 441 2565 725 
Q 2881 1009 2881 1497 
Q 2881 1984 2565 2268 
Q 2250 2553 1709 2553 
Q 1456 2553 1204 2497 
Q 953 2441 691 2322 
L 691 4666 
z
" transform="scale(0.015625)"/>
       </defs>
       <use xlink:href="#DejaVuSans-35"/>
       <use xlink:href="#DejaVuSans-30" transform="translate(63.623047 0)"/>
      </g>
     </g>
    </g>
    <g id="xtick_3">
     <g id="line2d_5">
      <g>
       <use xlink:href="#m3b3200ab99" x="185.138125" y="338.1" style="fill: #303030; stroke: #303030; stroke-width: 1.2"/>
      </g>
     </g>
     <g id="line2d_6">
      <g>
       <use xlink:href="#m2a7d5a40a9" x="185.138125" y="7.2" style="fill: #303030; stroke: #303030; stroke-width: 1.2"/>
      </g>
     </g>
     <g id="text_3">
      <!-- 100 -->
      <g style="fill: #303030" transform="translate(171.776875 352.237812) scale(0.14 -0.14)">
       <defs>
        <path id="DejaVuSans-31" d="M 794 531 
L 1825 531 
L 1825 4091 
L 703 3866 
L 703 4441 
L 1819 4666 
L 2450 4666 
L 2450 531 
L 3481 531 
L 3481 0 
L 794 0 
L 794 531 
z
" transform="scale(0.015625)"/>
       </defs>
       <use xlink:href="#DejaVuSans-31"/>
       <use xlink:href="#DejaVuSans-30" transform="translate(63.623047 0)"/>
       <use xlink:href="#DejaVuSans-30" transform="translate(127.246094 0)"/>
      </g>
     </g>
    </g>
    <g id="xtick_4">
     <g id="line2d_7">
      <g>
       <use xlink:href="#m3b3200ab99" x="250.22125" y="338.1" style="fill: #303030; stroke: #303030; stroke-width: 1.2"/>
      </g>
     </g>
     <g id="line2d_8">
      <g>
       <use xlink:href="#m2a7d5a40a9" x="250.22125" y="7.2" style="fill: #303030; stroke: #303030; stroke-width: 1.2"/>
      </g>
     </g>
     <g id="text_4">
      <!-- 150 -->
      <g style="fill: #303030" transform="translate(236.86 352.237812) scale(0.14 -0.14)">
       <use xlink:href="#DejaVuSans-31"/>
       <use xlink:href="#DejaVuSans-35" transform="translate(63.623047 0)"/>
       <use xlink:href="#DejaVuSans-30" transform="translate(127.246094 0)"/>
      </g>
     </g>
    </g>
    <g id="xtick_5">
     <g id="line2d_9">
      <g>
       <use xlink:href="#m3b3200ab99" x="315.304375" y="338.1" style="fill: #303030; stroke: #303030; stroke-width: 1.2"/>
      </g>
     </g>
     <g id="line2d_10">
      <g>
       <use xlink:href="#m2a7d5a40a9" x="315.304375" y="7.2" style="fill: #303030; stroke: #303030; stroke-width: 1.2"/>
      </g>
     </g>
     <g id="text_5">
      <!-- 200 -->
      <g style="fill: #303030" transform="translate(301.943125 352.237812) scale(0.14 -0.14)">
       <defs>
        <path id="DejaVuSans-32" d="M 1228 531 
L 3431 531 
L 3431 0 
L 469 0 
L 469 531 
Q 828 903 1448 1529 
Q 2069 2156 2228 2338 
Q 2531 2678 2651 2914 
Q 2772 3150 2772 3378 
Q 2772 3750 2511 3984 
Q 2250 4219 1831 4219 
Q 1534 4219 1204 4116 
Q 875 4013 500 3803 
L 500 4441 
Q 881 4594 1212 4672 
Q 1544 4750 1819 4750 
Q 2544 4750 2975 4387 
Q 3406 4025 3406 3419 
Q 3406 3131 3298 2873 
Q 3191 2616 2906 2266 
Q 2828 2175 2409 1742 
Q 1991 1309 1228 531 
z
" transform="scale(0.015625)"/>
       </defs>
       <use xlink:href="#DejaVuSans-32"/>
       <use xlink:href="#DejaVuSans-30" transform="translate(63.623047 0)"/>
       <use xlink:href="#DejaVuSans-30" transform="translate(127.246094 0)"/>
      </g>
     </g>
    </g>
    <g id="xtick_6">
     <g id="line2d_11">
      <g>
       <use xlink:href="#m3b3200ab99" x="380.3875" y="338.1" style="fill: #303030; stroke: #303030; stroke-width: 1.2"/>
      </g>
     </g>
     <g id="line2d_12">
      <g>
       <use xlink:href="#m2a7d5a40a9" x="380.3875" y="7.2" style="fill: #303030; stroke: #303030; stroke-width: 1.2"/>
      </g>
     </g>
     <g id="text_6">
      <!-- 250 -->
      <g style="fill: #303030" transform="translate(367.02625 352.237812) scale(0.14 -0.14)">
       <use xlink:href="#DejaVuSans-32"/>
       <use xlink:href="#DejaVuSans-35" transform="translate(63.623047 0)"/>
       <use xlink:href="#DejaVuSans-30" transform="translate(127.246094 0)"/>
      </g>
     </g>
    </g>
    <g id="xtick_7">
     <g id="line2d_13">
      <g>
       <use xlink:href="#m3b3200ab99" x="445.470625" y="338.1" style="fill: #303030; stroke: #303030; stroke-width: 1.2"/>
      </g>
     </g>
     <g id="line2d_14">
      <g>
       <use xlink:href="#m2a7d5a40a9" x="445.470625" y="7.2" style="fill: #303030; stroke: #303030; stroke-width: 1.2"/>
      </g>
     </g>
     <g id="text_7">
      <!-- 300 -->
      <g style="fill: #303030" transform="translate(432.109375 352.237812) scale(0.14 -0.14)">
       <defs>
        <path id="DejaVuSans-33" d="M 2597 2516 
Q 3050 2419 3304 2112 
Q 3559 1806 3559 1356 
Q 3559 666 3084 287 
Q 2609 -91 1734 -91 
Q 1441 -91 1130 -33 
Q 819 25 488 141 
L 488 750 
Q 750 597 1062 519 
Q 1375 441 1716 441 
Q 2309 441 2620 675 
Q 2931 909 2931 1356 
Q 2931 1769 2642 2001 
Q 2353 2234 1838 2234 
L 1294 2234 
L 1294 2753 
L 1863 2753 
Q 2328 2753 2575 2939 
Q 2822 3125 2822 3475 
Q 2822 3834 2567 4026 
Q 2313 4219 1838 4219 
Q 1578 4219 1281 4162 
Q 984 4106 628 3988 
L 628 4550 
Q 988 4650 1302 4700 
Q 1616 4750 1894 4750 
Q 2613 4750 3031 4423 
Q 3450 4097 3450 3541 
Q 3450 3153 3228 2886 
Q 3006 2619 2597 2516 
z
" transform="scale(0.015625)"/>
       </defs>
       <use xlink:href="#DejaVuSans-33"/>
       <use xlink:href="#DejaVuSans-30" transform="translate(63.623047 0)"/>
       <use xlink:href="#DejaVuSans-30" transform="translate(127.246094 0)"/>
      </g>
     </g>
    </g>
    <g id="xtick_8">
     <g id="line2d_15">
      <g>
       <use xlink:href="#m3b3200ab99" x="510.55375" y="338.1" style="fill: #303030; stroke: #303030; stroke-width: 1.2"/>
      </g>
     </g>
     <g id="line2d_16">
      <g>
       <use xlink:href="#m2a7d5a40a9" x="510.55375" y="7.2" style="fill: #303030; stroke: #303030; stroke-width: 1.2"/>
      </g>
     </g>
     <g id="text_8">
      <!-- 350 -->
      <g style="fill: #303030" transform="translate(497.1925 352.237812) scale(0.14 -0.14)">
       <use xlink:href="#DejaVuSans-33"/>
       <use xlink:href="#DejaVuSans-35" transform="translate(63.623047 0)"/>
       <use xlink:href="#DejaVuSans-30" transform="translate(127.246094 0)"/>
      </g>
     </g>
    </g>
    <g id="xtick_9">
     <g id="line2d_17">
      <g>
       <use xlink:href="#m3b3200ab99" x="575.636875" y="338.1" style="fill: #303030; stroke: #303030; stroke-width: 1.2"/>
      </g>
     </g>
     <g id="line2d_18">
      <g>
       <use xlink:href="#m2a7d5a40a9" x="575.636875" y="7.2" style="fill: #303030; stroke: #303030; stroke-width: 1.2"/>
      </g>
     </g>
     <g id="text_9">
      <!-- 400 -->
      <g style="fill: #303030" transform="translate(562.275625 352.237812) scale(0.14 -0.14)">
       <defs>
        <path id="DejaVuSans-34" d="M 2419 4116 
L 825 1625 
L 2419 1625 
L 2419 4116 
z
M 2253 4666 
L 3047 4666 
L 3047 1625 
L 3713 1625 
L 3713 1100 
L 3047 1100 
L 3047 0 
L 2419 0 
L 2419 1100 
L 313 1100 
L 313 1709 
L 2253 4666 
z
" transform="scale(0.015625)"/>
       </defs>
       <use xlink:href="#DejaVuSans-34"/>
       <use xlink:href="#DejaVuSans-30" transform="translate(63.623047 0)"/>
       <use xlink:href="#DejaVuSans-30" transform="translate(127.246094 0)"/>
      </g>
     </g>
    </g>
    <g id="text_10">
     <!-- Epochs -->
     <g transform="translate(290.2225 369.787187) scale(0.14 -0.14)">
      <defs>
       <path id="DejaVuSans-45" d="M 628 4666 
L 3578 4666 
L 3578 4134 
L 1259 4134 
L 1259 2753 
L 3481 2753 
L 3481 2222 
L 1259 2222 
L 1259 531 
L 3634 531 
L 3634 0 
L 628 0 
L 628 4666 
z
" transform="scale(0.015625)"/>
       <path id="DejaVuSans-70" d="M 1159 525 
L 1159 -1331 
L 581 -1331 
L 581 3500 
L 1159 3500 
L 1159 2969 
Q 1341 3281 1617 3432 
Q 1894 3584 2278 3584 
Q 2916 3584 3314 3078 
Q 3713 2572 3713 1747 
Q 3713 922 3314 415 
Q 2916 -91 2278 -91 
Q 1894 -91 1617 61 
Q 1341 213 1159 525 
z
M 3116 1747 
Q 3116 2381 2855 2742 
Q 2594 3103 2138 3103 
Q 1681 3103 1420 2742 
Q 1159 2381 1159 1747 
Q 1159 1113 1420 752 
Q 1681 391 2138 391 
Q 2594 391 2855 752 
Q 3116 1113 3116 1747 
z
" transform="scale(0.015625)"/>
       <path id="DejaVuSans-6f" d="M 1959 3097 
Q 1497 3097 1228 2736 
Q 959 2375 959 1747 
Q 959 1119 1226 758 
Q 1494 397 1959 397 
Q 2419 397 2687 759 
Q 2956 1122 2956 1747 
Q 2956 2369 2687 2733 
Q 2419 3097 1959 3097 
z
M 1959 3584 
Q 2709 3584 3137 3096 
Q 3566 2609 3566 1747 
Q 3566 888 3137 398 
Q 2709 -91 1959 -91 
Q 1206 -91 779 398 
Q 353 888 353 1747 
Q 353 2609 779 3096 
Q 1206 3584 1959 3584 
z
" transform="scale(0.015625)"/>
       <path id="DejaVuSans-63" d="M 3122 3366 
L 3122 2828 
Q 2878 2963 2633 3030 
Q 2388 3097 2138 3097 
Q 1578 3097 1268 2742 
Q 959 2388 959 1747 
Q 959 1106 1268 751 
Q 1578 397 2138 397 
Q 2388 397 2633 464 
Q 2878 531 3122 666 
L 3122 134 
Q 2881 22 2623 -34 
Q 2366 -91 2075 -91 
Q 1284 -91 818 406 
Q 353 903 353 1747 
Q 353 2603 823 3093 
Q 1294 3584 2113 3584 
Q 2378 3584 2631 3529 
Q 2884 3475 3122 3366 
z
" transform="scale(0.015625)"/>
       <path id="DejaVuSans-68" d="M 3513 2113 
L 3513 0 
L 2938 0 
L 2938 2094 
Q 2938 2591 2744 2837 
Q 2550 3084 2163 3084 
Q 1697 3084 1428 2787 
Q 1159 2491 1159 1978 
L 1159 0 
L 581 0 
L 581 4863 
L 1159 4863 
L 1159 2956 
Q 1366 3272 1645 3428 
Q 1925 3584 2291 3584 
Q 2894 3584 3203 3211 
Q 3513 2838 3513 2113 
z
" transform="scale(0.015625)"/>
       <path id="DejaVuSans-73" d="M 2834 3397 
L 2834 2853 
Q 2591 2978 2328 3040 
Q 2066 3103 1784 3103 
Q 1356 3103 1142 2972 
Q 928 2841 928 2578 
Q 928 2378 1081 2264 
Q 1234 2150 1697 2047 
L 1894 2003 
Q 2506 1872 2764 1633 
Q 3022 1394 3022 966 
Q 3022 478 2636 193 
Q 2250 -91 1575 -91 
Q 1294 -91 989 -36 
Q 684 19 347 128 
L 347 722 
Q 666 556 975 473 
Q 1284 391 1588 391 
Q 1994 391 2212 530 
Q 2431 669 2431 922 
Q 2431 1156 2273 1281 
Q 2116 1406 1581 1522 
L 1381 1569 
Q 847 1681 609 1914 
Q 372 2147 372 2553 
Q 372 3047 722 3315 
Q 1072 3584 1716 3584 
Q 2034 3584 2315 3537 
Q 2597 3491 2834 3397 
z
" transform="scale(0.015625)"/>
      </defs>
      <use xlink:href="#DejaVuSans-45"/>
      <use xlink:href="#DejaVuSans-70" transform="translate(63.183594 0)"/>
      <use xlink:href="#DejaVuSans-6f" transform="translate(126.660156 0)"/>
      <use xlink:href="#DejaVuSans-63" transform="translate(187.841797 0)"/>
      <use xlink:href="#DejaVuSans-68" transform="translate(242.822266 0)"/>
      <use xlink:href="#DejaVuSans-73" transform="translate(306.201172 0)"/>
     </g>
    </g>
   </g>
   <g id="matplotlib.axis_2">
    <g id="ytick_1">
     <g id="line2d_19">
      <path d="M 54.971875 335.384766 
L 575.636875 335.384766 
" clip-path="url(#p6688c1bc1c)" style="fill: none; stroke: #b0b0b0; stroke-opacity: 0.18; stroke-width: 0.8; stroke-linecap: square"/>
     </g>
     <g id="line2d_20">
      <defs>
       <path id="m391a993df0" d="M 0 0 
L 8 0 
" style="stroke: #303030; stroke-width: 1.2"/>
      </defs>
      <g>
       <use xlink:href="#m391a993df0" x="54.971875" y="335.384766" style="fill: #303030; stroke: #303030; stroke-width: 1.2"/>
      </g>
     </g>
     <g id="line2d_21">
      <defs>
       <path id="m68a453ca18" d="M 0 0 
L -8 0 
" style="stroke: #303030; stroke-width: 1.2"/>
      </defs>
      <g>
       <use xlink:href="#m68a453ca18" x="575.636875" y="335.384766" style="fill: #303030; stroke: #303030; stroke-width: 1.2"/>
      </g>
     </g>
     <g id="text_11">
      <!-- 20 -->
      <g style="fill: #303030" transform="translate(33.656875 340.703672) scale(0.14 -0.14)">
       <use xlink:href="#DejaVuSans-32"/>
       <use xlink:href="#DejaVuSans-30" transform="translate(63.623047 0)"/>
      </g>
     </g>
    </g>
    <g id="ytick_2">
     <g id="line2d_22">
      <path d="M 54.971875 298.40233 
L 575.636875 298.40233 
" clip-path="url(#p6688c1bc1c)" style="fill: none; stroke: #b0b0b0; stroke-opacity: 0.18; stroke-width: 0.8; stroke-linecap: square"/>
     </g>
     <g id="line2d_23">
      <g>
       <use xlink:href="#m391a993df0" x="54.971875" y="298.40233" style="fill: #303030; stroke: #303030; stroke-width: 1.2"/>
      </g>
     </g>
     <g id="line2d_24">
      <g>
       <use xlink:href="#m68a453ca18" x="575.636875" y="298.40233" style="fill: #303030; stroke: #303030; stroke-width: 1.2"/>
      </g>
     </g>
     <g id="text_12">
      <!-- 40 -->
      <g style="fill: #303030" transform="translate(33.656875 303.721236) scale(0.14 -0.14)">
       <use xlink:href="#DejaVuSans-34"/>
       <use xlink:href="#DejaVuSans-30" transform="translate(63.623047 0)"/>
      </g>
     </g>
    </g>
    <g id="ytick_3">
     <g id="line2d_25">
      <path d="M 54.971875 261.419894 
L 575.636875 261.419894 
" clip-path="url(#p6688c1bc1c)" style="fill: none; stroke: #b0b0b0; stroke-opacity: 0.18; stroke-width: 0.8; stroke-linecap: square"/>
     </g>
     <g id="line2d_26">
      <g>
       <use xlink:href="#m391a993df0" x="54.971875" y="261.419894" style="fill: #303030; stroke: #303030; stroke-width: 1.2"/>
      </g>
     </g>
     <g id="line2d_27">
      <g>
       <use xlink:href="#m68a453ca18" x="575.636875" y="261.419894" style="fill: #303030; stroke: #303030; stroke-width: 1.2"/>
      </g>
     </g>
     <g id="text_13">
      <!-- 60 -->
      <g style="fill: #303030" transform="translate(33.656875 266.7388) scale(0.14 -0.14)">
       <defs>
        <path id="DejaVuSans-36" d="M 2113 2584 
Q 1688 2584 1439 2293 
Q 1191 2003 1191 1497 
Q 1191 994 1439 701 
Q 1688 409 2113 409 
Q 2538 409 2786 701 
Q 3034 994 3034 1497 
Q 3034 2003 2786 2293 
Q 2538 2584 2113 2584 
z
M 3366 4563 
L 3366 3988 
Q 3128 4100 2886 4159 
Q 2644 4219 2406 4219 
Q 1781 4219 1451 3797 
Q 1122 3375 1075 2522 
Q 1259 2794 1537 2939 
Q 1816 3084 2150 3084 
Q 2853 3084 3261 2657 
Q 3669 2231 3669 1497 
Q 3669 778 3244 343 
Q 2819 -91 2113 -91 
Q 1303 -91 875 529 
Q 447 1150 447 2328 
Q 447 3434 972 4092 
Q 1497 4750 2381 4750 
Q 2619 4750 2861 4703 
Q 3103 4656 3366 4563 
z
" transform="scale(0.015625)"/>
       </defs>
       <use xlink:href="#DejaVuSans-36"/>
       <use xlink:href="#DejaVuSans-30" transform="translate(63.623047 0)"/>
      </g>
     </g>
    </g>
    <g id="ytick_4">
     <g id="line2d_28">
      <path d="M 54.971875 224.437457 
L 575.636875 224.437457 
" clip-path="url(#p6688c1bc1c)" style="fill: none; stroke: #b0b0b0; stroke-opacity: 0.18; stroke-width: 0.8; stroke-linecap: square"/>
     </g>
     <g id="line2d_29">
      <g>
       <use xlink:href="#m391a993df0" x="54.971875" y="224.437457" style="fill: #303030; stroke: #303030; stroke-width: 1.2"/>
      </g>
     </g>
     <g id="line2d_30">
      <g>
       <use xlink:href="#m68a453ca18" x="575.636875" y="224.437457" style="fill: #303030; stroke: #303030; stroke-width: 1.2"/>
      </g>
     </g>
     <g id="text_14">
      <!-- 80 -->
      <g style="fill: #303030" transform="translate(33.656875 229.756364) scale(0.14 -0.14)">
       <defs>
        <path id="DejaVuSans-38" d="M 2034 2216 
Q 1584 2216 1326 1975 
Q 1069 1734 1069 1313 
Q 1069 891 1326 650 
Q 1584 409 2034 409 
Q 2484 409 2743 651 
Q 3003 894 3003 1313 
Q 3003 1734 2745 1975 
Q 2488 2216 2034 2216 
z
M 1403 2484 
Q 997 2584 770 2862 
Q 544 3141 544 3541 
Q 544 4100 942 4425 
Q 1341 4750 2034 4750 
Q 2731 4750 3128 4425 
Q 3525 4100 3525 3541 
Q 3525 3141 3298 2862 
Q 3072 2584 2669 2484 
Q 3125 2378 3379 2068 
Q 3634 1759 3634 1313 
Q 3634 634 3220 271 
Q 2806 -91 2034 -91 
Q 1263 -91 848 271 
Q 434 634 434 1313 
Q 434 1759 690 2068 
Q 947 2378 1403 2484 
z
M 1172 3481 
Q 1172 3119 1398 2916 
Q 1625 2713 2034 2713 
Q 2441 2713 2670 2916 
Q 2900 3119 2900 3481 
Q 2900 3844 2670 4047 
Q 2441 4250 2034 4250 
Q 1625 4250 1398 4047 
Q 1172 3844 1172 3481 
z
" transform="scale(0.015625)"/>
       </defs>
       <use xlink:href="#DejaVuSans-38"/>
       <use xlink:href="#DejaVuSans-30" transform="translate(63.623047 0)"/>
      </g>
     </g>
    </g>
    <g id="ytick_5">
     <g id="line2d_31">
      <path d="M 54.971875 187.455021 
L 575.636875 187.455021 
" clip-path="url(#p6688c1bc1c)" style="fill: none; stroke: #b0b0b0; stroke-opacity: 0.18; stroke-width: 0.8; stroke-linecap: square"/>
     </g>
     <g id="line2d_32">
      <g>
       <use xlink:href="#m391a993df0" x="54.971875" y="187.455021" style="fill: #303030; stroke: #303030; stroke-width: 1.2"/>
      </g>
     </g>
     <g id="line2d_33">
      <g>
       <use xlink:href="#m68a453ca18" x="575.636875" y="187.455021" style="fill: #303030; stroke: #303030; stroke-width: 1.2"/>
      </g>
     </g>
     <g id="text_15">
      <!-- 100 -->
      <g style="fill: #303030" transform="translate(24.749375 192.773927) scale(0.14 -0.14)">
       <use xlink:href="#DejaVuSans-31"/>
       <use xlink:href="#DejaVuSans-30" transform="translate(63.623047 0)"/>
       <use xlink:href="#DejaVuSans-30" transform="translate(127.246094 0)"/>
      </g>
     </g>
    </g>
    <g id="ytick_6">
     <g id="line2d_34">
      <path d="M 54.971875 150.472585 
L 575.636875 150.472585 
" clip-path="url(#p6688c1bc1c)" style="fill: none; stroke: #b0b0b0; stroke-opacity: 0.18; stroke-width: 0.8; stroke-linecap: square"/>
     </g>
     <g id="line2d_35">
      <g>
       <use xlink:href="#m391a993df0" x="54.971875" y="150.472585" style="fill: #303030; stroke: #303030; stroke-width: 1.2"/>
      </g>
     </g>
     <g id="line2d_36">
      <g>
       <use xlink:href="#m68a453ca18" x="575.636875" y="150.472585" style="fill: #303030; stroke: #303030; stroke-width: 1.2"/>
      </g>
     </g>
     <g id="text_16">
      <!-- 120 -->
      <g style="fill: #303030" transform="translate(24.749375 155.791491) scale(0.14 -0.14)">
       <use xlink:href="#DejaVuSans-31"/>
       <use xlink:href="#DejaVuSans-32" transform="translate(63.623047 0)"/>
       <use xlink:href="#DejaVuSans-30" transform="translate(127.246094 0)"/>
      </g>
     </g>
    </g>
    <g id="ytick_7">
     <g id="line2d_37">
      <path d="M 54.971875 113.490149 
L 575.636875 113.490149 
" clip-path="url(#p6688c1bc1c)" style="fill: none; stroke: #b0b0b0; stroke-opacity: 0.18; stroke-width: 0.8; stroke-linecap: square"/>
     </g>
     <g id="line2d_38">
      <g>
       <use xlink:href="#m391a993df0" x="54.971875" y="113.490149" style="fill: #303030; stroke: #303030; stroke-width: 1.2"/>
      </g>
     </g>
     <g id="line2d_39">
      <g>
       <use xlink:href="#m68a453ca18" x="575.636875" y="113.490149" style="fill: #303030; stroke: #303030; stroke-width: 1.2"/>
      </g>
     </g>
     <g id="text_17">
      <!-- 140 -->
      <g style="fill: #303030" transform="translate(24.749375 118.809055) scale(0.14 -0.14)">
       <use xlink:href="#DejaVuSans-31"/>
       <use xlink:href="#DejaVuSans-34" transform="translate(63.623047 0)"/>
       <use xlink:href="#DejaVuSans-30" transform="translate(127.246094 0)"/>
      </g>
     </g>
    </g>
    <g id="ytick_8">
     <g id="line2d_40">
      <path d="M 54.971875 76.507713 
L 575.636875 76.507713 
" clip-path="url(#p6688c1bc1c)" style="fill: none; stroke: #b0b0b0; stroke-opacity: 0.18; stroke-width: 0.8; stroke-linecap: square"/>
     </g>
     <g id="line2d_41">
      <g>
       <use xlink:href="#m391a993df0" x="54.971875" y="76.507713" style="fill: #303030; stroke: #303030; stroke-width: 1.2"/>
      </g>
     </g>
     <g id="line2d_42">
      <g>
       <use xlink:href="#m68a453ca18" x="575.636875" y="76.507713" style="fill: #303030; stroke: #303030; stroke-width: 1.2"/>
      </g>
     </g>
     <g id="text_18">
      <!-- 160 -->
      <g style="fill: #303030" transform="translate(24.749375 81.826619) scale(0.14 -0.14)">
       <use xlink:href="#DejaVuSans-31"/>
       <use xlink:href="#DejaVuSans-36" transform="translate(63.623047 0)"/>
       <use xlink:href="#DejaVuSans-30" transform="translate(127.246094 0)"/>
      </g>
     </g>
    </g>
    <g id="ytick_9">
     <g id="line2d_43">
      <path d="M 54.971875 39.525277 
L 575.636875 39.525277 
" clip-path="url(#p6688c1bc1c)" style="fill: none; stroke: #b0b0b0; stroke-opacity: 0.18; stroke-width: 0.8; stroke-linecap: square"/>
     </g>
     <g id="line2d_44">
      <g>
       <use xlink:href="#m391a993df0" x="54.971875" y="39.525277" style="fill: #303030; stroke: #303030; stroke-width: 1.2"/>
      </g>
     </g>
     <g id="line2d_45">
      <g>
       <use xlink:href="#m68a453ca18" x="575.636875" y="39.525277" style="fill: #303030; stroke: #303030; stroke-width: 1.2"/>
      </g>
     </g>
     <g id="text_19">
      <!-- 180 -->
      <g style="fill: #303030" transform="translate(24.749375 44.844183) scale(0.14 -0.14)">
       <use xlink:href="#DejaVuSans-31"/>
       <use xlink:href="#DejaVuSans-38" transform="translate(63.623047 0)"/>
       <use xlink:href="#DejaVuSans-30" transform="translate(127.246094 0)"/>
      </g>
     </g>
    </g>
    <g id="text_20">
     <!-- Episode return -->
     <g transform="translate(17.837813 223.766406) rotate(-90) scale(0.14 -0.14)">
      <defs>
       <path id="DejaVuSans-69" d="M 603 3500 
L 1178 3500 
L 1178 0 
L 603 0 
L 603 3500 
z
M 603 4863 
L 1178 4863 
L 1178 4134 
L 603 4134 
L 603 4863 
z
" transform="scale(0.015625)"/>
       <path id="DejaVuSans-64" d="M 2906 2969 
L 2906 4863 
L 3481 4863 
L 3481 0 
L 2906 0 
L 2906 525 
Q 2725 213 2448 61 
Q 2172 -91 1784 -91 
Q 1150 -91 751 415 
Q 353 922 353 1747 
Q 353 2572 751 3078 
Q 1150 3584 1784 3584 
Q 2172 3584 2448 3432 
Q 2725 3281 2906 2969 
z
M 947 1747 
Q 947 1113 1208 752 
Q 1469 391 1925 391 
Q 2381 391 2643 752 
Q 2906 1113 2906 1747 
Q 2906 2381 2643 2742 
Q 2381 3103 1925 3103 
Q 1469 3103 1208 2742 
Q 947 2381 947 1747 
z
" transform="scale(0.015625)"/>
       <path id="DejaVuSans-65" d="M 3597 1894 
L 3597 1613 
L 953 1613 
Q 991 1019 1311 708 
Q 1631 397 2203 397 
Q 2534 397 2845 478 
Q 3156 559 3463 722 
L 3463 178 
Q 3153 47 2828 -22 
Q 2503 -91 2169 -91 
Q 1331 -91 842 396 
Q 353 884 353 1716 
Q 353 2575 817 3079 
Q 1281 3584 2069 3584 
Q 2775 3584 3186 3129 
Q 3597 2675 3597 1894 
z
M 3022 2063 
Q 3016 2534 2758 2815 
Q 2500 3097 2075 3097 
Q 1594 3097 1305 2825 
Q 1016 2553 972 2059 
L 3022 2063 
z
" transform="scale(0.015625)"/>
       <path id="DejaVuSans-20" transform="scale(0.015625)"/>
       <path id="DejaVuSans-72" d="M 2631 2963 
Q 2534 3019 2420 3045 
Q 2306 3072 2169 3072 
Q 1681 3072 1420 2755 
Q 1159 2438 1159 1844 
L 1159 0 
L 581 0 
L 581 3500 
L 1159 3500 
L 1159 2956 
Q 1341 3275 1631 3429 
Q 1922 3584 2338 3584 
Q 2397 3584 2469 3576 
Q 2541 3569 2628 3553 
L 2631 2963 
z
" transform="scale(0.015625)"/>
       <path id="DejaVuSans-74" d="M 1172 4494 
L 1172 3500 
L 2356 3500 
L 2356 3053 
L 1172 3053 
L 1172 1153 
Q 1172 725 1289 603 
Q 1406 481 1766 481 
L 2356 481 
L 2356 0 
L 1766 0 
Q 1100 0 847 248 
Q 594 497 594 1153 
L 594 3053 
L 172 3053 
L 172 3500 
L 594 3500 
L 594 4494 
L 1172 4494 
z
" transform="scale(0.015625)"/>
       <path id="DejaVuSans-75" d="M 544 1381 
L 544 3500 
L 1119 3500 
L 1119 1403 
Q 1119 906 1312 657 
Q 1506 409 1894 409 
Q 2359 409 2629 706 
Q 2900 1003 2900 1516 
L 2900 3500 
L 3475 3500 
L 3475 0 
L 2900 0 
L 2900 538 
Q 2691 219 2414 64 
Q 2138 -91 1772 -91 
Q 1169 -91 856 284 
Q 544 659 544 1381 
z
M 1991 3584 
L 1991 3584 
z
" transform="scale(0.015625)"/>
       <path id="DejaVuSans-6e" d="M 3513 2113 
L 3513 0 
L 2938 0 
L 2938 2094 
Q 2938 2591 2744 2837 
Q 2550 3084 2163 3084 
Q 1697 3084 1428 2787 
Q 1159 2491 1159 1978 
L 1159 0 
L 581 0 
L 581 3500 
L 1159 3500 
L 1159 2956 
Q 1366 3272 1645 3428 
Q 1925 3584 2291 3584 
Q 2894 3584 3203 3211 
Q 3513 2838 3513 2113 
z
" transform="scale(0.015625)"/>
      </defs>
      <use xlink:href="#DejaVuSans-45"/>
      <use xlink:href="#DejaVuSans-70" transform="translate(63.183594 0)"/>
      <use xlink:href="#DejaVuSans-69" transform="translate(126.660156 0)"/>
      <use xlink:href="#DejaVuSans-73" transform="translate(154.443359 0)"/>
      <use xlink:href="#DejaVuSans-6f" transform="translate(206.542969 0)"/>
      <use xlink:href="#DejaVuSans-64" transform="translate(267.724609 0)"/>
      <use xlink:href="#DejaVuSans-65" transform="translate(331.201172 0)"/>
      <use xlink:href="#DejaVuSans-20" transform="translate(392.724609 0)"/>
      <use xlink:href="#DejaVuSans-72" transform="translate(424.511719 0)"/>
      <use xlink:href="#DejaVuSans-65" transform="translate(463.375 0)"/>
      <use xlink:href="#DejaVuSans-74" transform="translate(524.898438 0)"/>
      <use xlink:href="#DejaVuSans-75" transform="translate(564.107422 0)"/>
      <use xlink:href="#DejaVuSans-72" transform="translate(627.486328 0)"/>
      <use xlink:href="#DejaVuSans-6e" transform="translate(666.849609 0)"/>
     </g>
    </g>
   </g>
   <g id="line2d_46">
    <path d="M 56.273538 257.912154 
L 57.5752 256.455918 
L 58.876863 250.227494 
L 60.178525 246.960672 
L 61.480188 251.043715 
L 62.78185 244.564958 
L 64.083513 245.609919 
L 65.385175 241.987999 
L 66.686838 240.682625 
L 67.9885 235.768934 
L 69.290163 237.665452 
L 70.591825 235.797078 
L 71.893488 225.918536 
L 73.19515 224.957524 
L 74.496813 225.210585 
L 75.798475 226.960519 
L 77.100138 218.766982 
L 78.4018 216.9408 
L 79.703463 212.960759 
L 81.005125 224.426488 
L 82.306788 214.164113 
L 83.60845 218.953534 
L 86.211775 204.67117 
L 87.513438 210.261909 
L 88.8151 197.88392 
L 90.116763 202.120554 
L 91.418425 190.976887 
L 92.720088 193.387964 
L 94.02175 184.731469 
L 95.323413 188.89881 
L 96.625075 189.862608 
L 97.926738 176.703236 
L 99.2284 169.450907 
L 100.530063 173.182057 
L 101.831725 169.011563 
L 103.133388 173.517008 
L 104.43505 165.541158 
L 105.736713 170.864908 
L 107.038375 165.155062 
L 108.340038 162.733513 
L 109.6417 172.484514 
L 110.943363 161.805146 
L 112.245025 156.051033 
L 113.546688 163.585626 
L 114.84835 155.014992 
L 116.150013 153.395277 
L 117.451675 158.919095 
L 118.753338 157.039502 
L 120.055 149.629641 
L 121.356663 152.740607 
L 122.658325 149.917153 
L 123.959988 155.563887 
L 125.26165 156.368114 
L 126.563313 147.657033 
L 127.864975 155.597314 
L 129.166638 147.92298 
L 130.4683 164.875748 
L 131.769963 149.116622 
L 133.071625 136.828199 
L 134.373288 148.730761 
L 135.67495 150.302441 
L 136.976612 135.322506 
L 138.278275 134.14011 
L 139.579938 139.593135 
L 140.8816 137.266581 
L 142.183263 149.141266 
L 143.484925 140.908407 
L 144.786587 137.330992 
L 146.08825 135.025889 
L 147.389913 137.994775 
L 148.691575 146.152418 
L 149.993238 130.91089 
L 151.2949 127.965105 
L 152.596563 134.486922 
L 153.898225 134.654301 
L 155.199887 130.13079 
L 156.50155 129.274903 
L 157.803213 111.982464 
L 159.104875 118.841593 
L 160.406538 111.563686 
L 161.7082 108.071107 
L 163.009862 107.459965 
L 164.311525 96.81515 
L 165.613188 111.007754 
L 166.91485 111.343135 
L 168.216513 98.502673 
L 169.518175 111.685426 
L 170.819838 105.869335 
L 172.1215 88.007176 
L 173.423162 99.461473 
L 174.724825 107.194264 
L 176.026488 88.401455 
L 177.32815 82.261225 
L 178.629813 88.523374 
L 179.931475 98.685963 
L 181.233137 87.67846 
L 182.5348 73.295751 
L 183.836463 72.784622 
L 185.138125 88.516909 
L 186.439787 64.328806 
L 187.74145 89.776771 
L 189.043113 73.224528 
L 190.344775 69.103665 
L 191.646438 66.441027 
L 192.9481 77.365952 
L 194.249763 71.30054 
L 195.551425 77.563168 
L 196.853088 64.074112 
L 198.15475 47.433765 
L 199.456412 64.003991 
L 200.758075 77.2409 
L 202.059738 48.611431 
L 203.3614 69.924409 
L 204.663062 56.575997 
L 205.964725 61.888552 
L 207.266388 60.157682 
L 208.56805 33.84033 
L 209.869712 54.154548 
L 211.171375 65.17705 
L 212.473038 63.079488 
L 213.7747 51.410447 
L 215.076363 57.14428 
L 216.378025 66.370867 
L 217.679688 73.996151 
L 218.98135 60.813363 
L 220.283013 50.133194 
L 221.584675 43.874324 
L 222.886337 72.155519 
L 224.188 70.418893 
L 225.489663 60.296877 
L 226.791325 42.834931 
L 228.092987 74.154228 
L 229.39465 43.665213 
L 230.696313 41.965353 
L 231.997975 46.776278 
L 233.299638 68.166148 
L 234.6013 45.122421 
L 235.902963 56.496612 
L 237.204625 57.521049 
L 238.506288 42.326534 
L 239.80795 60.547098 
L 241.109612 57.011704 
L 242.411275 54.855276 
L 243.712938 32.503278 
L 245.0146 34.358386 
L 246.316262 55.801216 
L 247.617925 46.878154 
L 248.919588 60.485899 
L 250.22125 38.11064 
L 250.22125 38.11064 
" clip-path="url(#p6688c1bc1c)" style="fill: none; stroke: #303030; stroke-opacity: 0.9; stroke-width: 1.6; stroke-linecap: square"/>
   </g>
   <g id="line2d_47">
    <path d="M 56.273538 259.016608 
L 57.5752 253.24843 
L 58.876863 250.086721 
L 60.178525 246.393873 
L 61.480188 247.72093 
L 64.083513 237.730156 
L 65.385175 234.70486 
L 66.686838 235.66287 
L 67.9885 229.417638 
L 69.290163 224.289459 
L 70.591825 225.744949 
L 71.893488 233.851297 
L 73.19515 223.682568 
L 74.496813 221.715004 
L 75.798475 225.706577 
L 77.100138 216.006913 
L 78.4018 232.740653 
L 79.703463 216.957136 
L 81.005125 221.164904 
L 82.306788 218.463257 
L 83.60845 219.451594 
L 84.910113 216.777348 
L 86.211775 207.034974 
L 87.513438 214.580505 
L 88.8151 208.878396 
L 90.116763 210.248859 
L 91.418425 196.169922 
L 92.720088 205.79464 
L 94.02175 201.998304 
L 95.323413 201.873878 
L 96.625075 209.544764 
L 97.926738 186.943181 
L 100.530063 191.734773 
L 101.831725 187.591311 
L 103.133388 187.605247 
L 104.43505 176.714916 
L 105.736713 188.586156 
L 107.038375 185.772716 
L 108.340038 178.762075 
L 109.6417 169.732474 
L 110.943363 166.36044 
L 112.245025 161.662481 
L 113.546688 172.031605 
L 114.84835 177.643991 
L 116.150013 169.759567 
L 117.451675 163.94524 
L 118.753338 167.380218 
L 120.055 160.74138 
L 121.356663 161.475272 
L 122.658325 147.880988 
L 123.959988 172.069624 
L 126.563313 145.417436 
L 127.864975 147.79342 
L 129.166638 156.155191 
L 130.4683 147.650254 
L 131.769963 160.617641 
L 133.071625 158.812896 
L 134.373288 150.162948 
L 135.67495 152.557785 
L 136.976612 145.517995 
L 138.278275 154.039381 
L 139.579938 142.43804 
L 140.8816 152.435584 
L 142.183263 149.211159 
L 143.484925 136.021162 
L 144.786587 128.318297 
L 146.08825 146.151652 
L 147.389913 128.901609 
L 148.691575 139.719048 
L 149.993238 138.060405 
L 151.2949 130.414142 
L 152.596563 130.628775 
L 153.898225 139.367855 
L 155.199887 138.152017 
L 156.50155 131.189689 
L 157.803213 137.273565 
L 159.104875 135.391622 
L 160.406538 126.235723 
L 161.7082 119.843658 
L 163.009862 130.814113 
L 164.311525 120.093768 
L 165.613188 125.002851 
L 166.91485 122.869573 
L 168.216513 115.667012 
L 169.518175 128.314443 
L 170.819838 131.787799 
L 172.1215 124.628306 
L 173.423162 116.151377 
L 174.724825 127.692948 
L 176.026488 114.127671 
L 177.32815 117.718457 
L 178.629813 136.210053 
L 179.931475 119.978579 
L 181.233137 128.38542 
L 182.5348 118.88697 
L 183.836463 126.522903 
L 185.138125 127.605255 
L 186.439787 103.687932 
L 187.74145 114.249126 
L 189.043113 117.196268 
L 190.344775 108.203242 
L 191.646438 98.164502 
L 192.9481 108.47864 
L 194.249763 106.567798 
L 195.551425 112.445282 
L 196.853088 100.449085 
L 198.15475 100.821014 
L 199.456412 110.761206 
L 200.758075 105.530886 
L 202.059738 98.68192 
L 203.3614 87.296014 
L 204.663062 96.403197 
L 205.964725 104.478932 
L 207.266388 90.808207 
L 208.56805 110.635533 
L 211.171375 104.118285 
L 212.473038 96.063124 
L 213.7747 96.763205 
L 215.076363 103.571714 
L 216.378025 82.764702 
L 217.679688 95.893224 
L 218.98135 91.287537 
L 220.283013 95.523457 
L 221.584675 95.404617 
L 224.188 79.497777 
L 225.489663 97.329516 
L 226.791325 95.136286 
L 228.092987 86.141268 
L 229.39465 88.006164 
L 230.696313 94.673302 
L 231.997975 75.633338 
L 233.299638 87.120043 
L 234.6013 72.739992 
L 235.902963 67.180259 
L 237.204625 70.938614 
L 238.506288 66.31208 
L 239.80795 63.630643 
L 241.109612 64.423756 
L 242.411275 70.101873 
L 243.712938 53.988357 
L 245.0146 69.372599 
L 246.316262 63.629023 
L 247.617925 62.847273 
L 248.919588 73.173818 
L 250.22125 71.006903 
L 251.522912 44.695116 
L 252.824575 48.453077 
L 254.126238 54.22396 
L 255.4279 45.493368 
L 256.729563 49.346525 
L 258.031225 39.001647 
L 259.332887 66.886765 
L 260.63455 49.470918 
L 261.936213 40.093704 
L 263.237875 63.505473 
L 264.539537 61.24579 
L 265.8412 52.539124 
L 267.142862 50.169906 
L 268.444525 63.387605 
L 269.746188 65.615948 
L 271.04785 40.115834 
L 272.349513 53.969337 
L 273.651175 47.715772 
L 274.952837 54.293259 
L 276.2545 62.221508 
L 277.556163 45.607653 
L 278.857825 39.300525 
L 280.159488 47.859158 
L 281.46115 59.819862 
L 282.762812 43.702069 
L 284.064475 64.844082 
L 285.366138 53.492675 
L 286.6678 58.617754 
L 287.969462 72.439716 
L 289.271125 55.775738 
L 290.572788 57.787111 
L 291.87445 54.197061 
L 293.176112 57.425892 
L 294.477775 51.913281 
L 295.779437 61.102849 
L 297.0811 44.596326 
L 298.382763 58.169549 
L 299.684425 65.75347 
L 300.986087 54.338437 
L 302.28775 48.030707 
L 303.589412 63.385398 
L 304.891075 48.38498 
L 306.192738 48.021514 
L 307.4944 61.593204 
L 308.796063 37.672999 
L 310.097725 49.195957 
L 311.399387 76.26376 
L 312.70105 54.142635 
L 314.002712 53.379683 
L 315.304375 56.12064 
L 316.606038 51.143416 
L 317.9077 55.411151 
L 319.209362 64.865076 
L 320.511025 60.616787 
L 321.812687 50.16271 
L 324.416013 60.409078 
L 325.717675 72.353017 
L 327.019338 25.890056 
L 328.321 47.045156 
L 329.622662 40.021541 
L 330.924325 38.597785 
L 332.225987 56.315926 
L 333.52765 46.284383 
L 334.829313 56.151924 
L 336.130975 58.400082 
L 337.432637 64.158999 
L 338.7343 62.508179 
L 340.035962 39.550476 
L 341.337625 31.571222 
L 342.639288 47.938262 
L 343.94095 58.677528 
L 345.242613 48.925358 
L 346.544275 49.604945 
L 347.845937 60.439851 
L 349.1476 24.775812 
L 350.449262 48.148542 
L 351.750925 56.495678 
L 353.052588 50.071727 
L 354.35425 51.914928 
L 355.655912 47.831225 
L 356.957575 35.832716 
L 358.259237 47.543077 
L 359.5609 51.974904 
L 360.862563 48.083486 
L 362.164225 56.077833 
L 363.465888 22.240909 
L 364.76755 44.432745 
L 366.069212 44.399977 
L 367.370875 32.797512 
L 368.672537 47.406491 
L 369.9742 43.569805 
L 371.275863 43.921324 
L 372.577525 39.837591 
L 373.879188 55.168034 
L 375.18085 22.323699 
L 376.482512 58.260822 
L 377.784175 53.044712 
L 379.085838 32.071051 
L 380.3875 48.988645 
L 381.689163 46.583357 
L 382.990825 56.993697 
L 384.292487 36.487258 
L 385.59415 30.603221 
L 386.895812 40.580308 
L 388.197475 55.353131 
L 389.499138 55.402754 
L 390.8008 59.362662 
L 392.102463 44.491097 
L 393.404125 56.766439 
L 396.00745 40.612177 
L 397.309112 56.069473 
L 397.309112 56.069473 
" clip-path="url(#p6688c1bc1c)" style="fill: none; stroke: #423d84; stroke-opacity: 0.9; stroke-width: 1.6; stroke-linecap: square"/>
   </g>
   <g id="line2d_48">
    <path d="M 56.273538 265.858424 
L 58.876863 258.058527 
L 60.178525 257.400232 
L 61.480188 247.406087 
L 62.78185 248.273459 
L 65.385175 242.199972 
L 66.686838 234.825745 
L 67.9885 237.653983 
L 70.591825 221.38457 
L 71.893488 222.918678 
L 73.19515 214.450579 
L 74.496813 210.949878 
L 77.100138 201.088543 
L 78.4018 207.527228 
L 79.703463 194.688181 
L 81.005125 196.813715 
L 82.306788 188.951587 
L 83.60845 191.595195 
L 86.211775 185.10625 
L 87.513438 188.778037 
L 88.8151 183.702098 
L 90.116763 180.806507 
L 91.418425 173.460842 
L 92.720088 174.827841 
L 94.02175 169.817413 
L 95.323413 168.278202 
L 96.625075 174.754745 
L 97.926738 167.962291 
L 99.2284 168.967518 
L 100.530063 167.068508 
L 101.831725 159.577892 
L 103.133388 179.316567 
L 104.43505 163.96083 
L 105.736713 167.900269 
L 107.038375 160.751708 
L 108.340038 168.208929 
L 109.6417 155.672103 
L 110.943363 161.542213 
L 112.245025 153.088634 
L 113.546688 171.125983 
L 114.84835 160.760581 
L 116.150013 157.60291 
L 117.451675 161.890019 
L 118.753338 158.3153 
L 120.055 148.922296 
L 121.356663 149.103079 
L 122.658325 140.151094 
L 123.959988 151.895217 
L 125.26165 144.468808 
L 126.563313 140.310242 
L 127.864975 161.154622 
L 129.166638 145.556868 
L 130.4683 157.970941 
L 131.769963 159.576037 
L 133.071625 158.330773 
L 134.373288 147.369398 
L 135.67495 144.457036 
L 136.976612 145.645261 
L 138.278275 135.7815 
L 139.579938 150.302214 
L 140.8816 153.021858 
L 142.183263 145.305914 
L 143.484925 159.613907 
L 144.786587 156.433169 
L 146.08825 167.282768 
L 147.389913 140.752213 
L 148.691575 155.487303 
L 149.993238 132.485461 
L 152.596563 151.47038 
L 153.898225 141.951777 
L 155.199887 145.283113 
L 156.50155 141.008796 
L 157.803213 148.448691 
L 159.104875 146.361367 
L 160.406538 151.101866 
L 161.7082 156.506164 
L 163.009862 136.969843 
L 164.311525 136.259513 
L 165.613188 147.916563 
L 166.91485 153.932663 
L 168.216513 148.254502 
L 169.518175 154.383999 
L 170.819838 138.253857 
L 172.1215 139.159113 
L 173.423162 129.614871 
L 174.724825 141.917224 
L 176.026488 130.94768 
L 177.32815 133.513711 
L 179.931475 128.109126 
L 181.233137 134.082374 
L 182.5348 145.167428 
L 183.836463 130.614996 
L 185.138125 125.583431 
L 186.439787 138.043058 
L 187.74145 136.407846 
L 189.043113 133.504955 
L 190.344775 144.268695 
L 191.646438 129.596228 
L 192.9481 118.756459 
L 194.249763 124.75409 
L 195.551425 131.459611 
L 196.853088 126.172504 
L 198.15475 128.00316 
L 199.456412 127.479718 
L 200.758075 131.006213 
L 202.059738 136.886899 
L 203.3614 120.379416 
L 204.663062 133.665639 
L 205.964725 140.119362 
L 207.266388 130.718542 
L 208.56805 144.072085 
L 209.869712 120.096421 
L 211.171375 121.648586 
L 212.473038 128.936672 
L 213.7747 108.136528 
L 215.076363 112.909907 
L 216.378025 118.605397 
L 217.679688 132.745045 
L 218.98135 130.199824 
L 220.283013 132.739898 
L 221.584675 107.778958 
L 224.188 115.412178 
L 225.489663 123.48633 
L 226.791325 128.775865 
L 228.092987 128.445139 
L 229.39465 129.687726 
L 230.696313 133.113375 
L 231.997975 125.022014 
L 233.299638 113.32617 
L 234.6013 121.586043 
L 235.902963 126.260566 
L 237.204625 122.692067 
L 238.506288 128.416995 
L 239.80795 118.744945 
L 241.109612 119.122538 
L 242.411275 123.267114 
L 243.712938 144.818012 
L 245.0146 120.770381 
L 246.316262 119.90922 
L 247.617925 113.479671 
L 248.919588 118.717812 
L 250.22125 119.20626 
L 252.824575 129.883677 
L 254.126238 114.474594 
L 255.4279 130.631098 
L 256.729563 118.307536 
L 258.031225 119.306205 
L 259.332887 119.427714 
L 260.63455 129.859134 
L 261.936213 119.800818 
L 263.237875 134.685393 
L 264.539537 122.323346 
L 265.8412 123.148307 
L 267.142862 114.610225 
L 268.444525 110.738763 
L 269.746188 119.461824 
L 271.04785 124.557249 
L 273.651175 110.679028 
L 274.952837 110.932044 
L 276.2545 122.558892 
L 277.556163 98.38537 
L 278.857825 130.722591 
L 280.159488 124.466569 
L 281.46115 120.230604 
L 282.762812 127.066401 
L 284.064475 117.959104 
L 285.366138 136.11326 
L 286.6678 99.158443 
L 287.969462 111.33104 
L 289.271125 115.742353 
L 290.572788 132.251627 
L 291.87445 116.807456 
L 293.176112 108.997587 
L 294.477775 103.920198 
L 295.779437 110.98275 
L 297.0811 101.6389 
L 298.382763 106.498376 
L 300.986087 96.24904 
L 302.28775 114.145486 
L 303.589412 101.144664 
L 304.891075 92.028938 
L 306.192738 103.235018 
L 307.4944 125.807001 
L 308.796063 105.616344 
L 310.097725 107.595599 
L 311.399387 110.083245 
L 312.70105 108.970104 
L 314.002712 112.383454 
L 315.304375 104.358201 
L 316.606038 98.378552 
L 317.9077 106.430484 
L 319.209362 90.184838 
L 320.511025 96.72903 
L 321.812687 96.00849 
L 323.11435 113.023121 
L 324.416013 101.956998 
L 325.717675 100.097743 
L 327.019338 89.149399 
L 328.321 101.821994 
L 329.622662 113.00741 
L 332.225987 99.172816 
L 333.52765 98.383965 
L 334.829313 95.284713 
L 336.130975 115.664589 
L 337.432637 107.809673 
L 338.7343 105.507774 
L 340.035962 102.663499 
L 341.337625 92.363851 
L 342.639288 95.452679 
L 343.94095 106.933434 
L 345.242613 109.124346 
L 346.544275 126.577103 
L 347.845937 91.795824 
L 349.1476 95.929784 
L 350.449262 112.036919 
L 351.750925 109.139239 
L 353.052588 102.84499 
L 354.35425 82.601595 
L 355.655912 100.664911 
L 356.957575 103.510035 
L 358.259237 98.119411 
L 359.5609 82.520269 
L 360.862563 102.261686 
L 362.164225 75.399788 
L 363.465888 92.275917 
L 364.76755 92.191744 
L 366.069212 85.734053 
L 367.370875 78.49857 
L 368.672537 101.478488 
L 369.9742 107.108916 
L 371.275863 102.3044 
L 372.577525 89.703713 
L 373.879188 87.399986 
L 375.18085 91.908121 
L 376.482512 79.349486 
L 377.784175 82.008195 
L 379.085838 87.808973 
L 380.3875 81.78702 
L 381.689163 87.597527 
L 382.990825 91.938696 
L 384.292487 76.512691 
L 385.59415 67.270262 
L 386.895812 72.335185 
L 388.197475 70.418337 
L 389.499138 75.073228 
L 390.8008 67.768329 
L 392.102463 85.664701 
L 393.404125 92.978012 
L 394.705787 74.334626 
L 396.00745 75.79717 
L 397.309112 68.315073 
L 398.610775 82.38178 
L 399.912438 87.400899 
L 401.2141 78.615765 
L 402.515762 71.953638 
L 403.817425 95.093562 
L 405.119087 83.336926 
L 406.42075 81.186899 
L 407.722413 86.771649 
L 409.024075 95.600964 
L 410.325738 75.130628 
L 411.6274 77.263785 
L 412.929062 98.69027 
L 414.230725 70.500032 
L 415.532387 72.508718 
L 415.532387 72.508718 
" clip-path="url(#p6688c1bc1c)" style="fill: none; stroke: #3c55c2; stroke-opacity: 0.9; stroke-width: 1.6; stroke-linecap: square"/>
   </g>
   <g id="line2d_49">
    <path d="M 58.876863 254.296283 
L 61.480188 254.296283 
L 62.78185 239.130259 
L 64.083513 239.130259 
L 65.385175 218.198843 
L 67.9885 218.198843 
L 69.290163 202.104274 
L 71.893488 202.104274 
L 73.19515 198.675289 
L 74.496813 198.675289 
L 75.798475 188.932112 
L 78.4018 188.932112 
L 79.703463 180.313804 
L 82.306788 180.313804 
L 83.60845 178.066105 
L 84.910113 178.066105 
L 86.211775 181.750689 
L 88.8151 181.750689 
L 90.116763 179.254783 
L 91.418425 179.254783 
L 92.720088 182.382437 
L 95.323413 182.382437 
L 96.625075 173.564186 
L 99.2284 173.564186 
L 100.530063 170.456303 
L 101.831725 170.456303 
L 103.133388 167.441387 
L 105.736713 167.441387 
L 107.038375 170.193964 
L 109.6417 170.193964 
L 110.943363 170.938955 
L 112.245025 170.938955 
L 113.546688 175.184998 
L 116.150013 175.184998 
L 117.451675 168.646414 
L 118.753338 168.646414 
L 120.055 161.212456 
L 122.658325 161.212456 
L 123.959988 181.583748 
L 126.563313 181.583748 
L 127.864975 219.625068 
L 129.166638 219.625068 
L 130.4683 214.556002 
L 133.071625 214.556002 
L 134.373288 199.959835 
L 136.976612 199.959835 
L 138.278275 198.484327 
L 139.579938 198.484327 
L 140.8816 201.636766 
L 143.484925 201.636766 
L 144.786587 203.165119 
L 147.389913 203.165119 
L 148.691575 187.013493 
L 149.993238 187.013493 
L 151.2949 190.429256 
L 153.898225 190.429256 
L 155.199887 182.061947 
L 156.50155 182.061947 
L 157.803213 163.862193 
L 160.406538 163.862193 
L 161.7082 162.830959 
L 164.311525 162.830959 
L 165.613188 172.375891 
L 166.91485 172.375891 
L 168.216513 166.387179 
L 170.819838 166.387179 
L 172.1215 160.306668 
L 174.724825 160.306668 
L 176.026488 157.301396 
L 177.32815 157.301396 
L 178.629813 160.876656 
L 181.233137 160.876656 
L 182.5348 166.988317 
L 183.836463 166.988317 
L 185.138125 178.122032 
L 187.74145 178.122032 
L 189.043113 189.85912 
L 191.646438 189.85912 
L 192.9481 205.545437 
L 194.249763 205.545437 
L 195.551425 184.283686 
L 198.15475 184.283686 
L 199.456412 160.251218 
L 202.059738 160.251218 
L 203.3614 186.132241 
L 204.663062 186.132241 
L 205.964725 197.14766 
L 208.56805 197.14766 
L 209.869712 191.840131 
L 212.473038 191.840131 
L 213.7747 184.056139 
L 215.076363 184.056139 
L 216.378025 178.38949 
L 218.98135 178.38949 
L 220.283013 190.338877 
L 221.584675 190.338877 
L 222.886337 189.624122 
L 225.489663 189.624122 
L 226.791325 182.674076 
L 229.39465 182.674076 
L 230.696313 174.122761 
L 231.997975 174.122761 
L 233.299638 177.278227 
L 235.902963 177.278227 
L 237.204625 174.522508 
L 239.80795 174.522508 
L 241.109612 190.738737 
L 242.411275 190.738737 
L 243.712938 186.968944 
L 246.316262 186.968944 
L 247.617925 183.777762 
L 248.919588 183.777762 
L 250.22125 186.102853 
L 250.22125 186.102853 
" clip-path="url(#p6688c1bc1c)" style="fill: none; stroke: #2281a5; stroke-opacity: 0.9; stroke-width: 1.6; stroke-linecap: square"/>
   </g>
   <g id="line2d_50">
    <path d="M 56.273538 316.738912 
L 57.5752 319.125501 
L 58.876863 315.823874 
L 60.178525 317.833847 
L 61.480188 323.059091 
L 62.78185 315.53437 
L 64.083513 314.536164 
L 65.385175 308.108792 
L 66.686838 306.346723 
L 67.9885 310.577846 
L 69.290163 306.975834 
L 70.591825 305.170754 
L 71.893488 306.848114 
L 73.19515 306.569029 
L 74.496813 304.313114 
L 75.798475 301.255723 
L 77.100138 299.482426 
L 78.4018 292.687526 
L 79.703463 294.036787 
L 81.005125 300.362858 
L 82.306788 298.48546 
L 83.60845 298.28033 
L 84.910113 287.831205 
L 86.211775 289.275269 
L 87.513438 285.27106 
L 88.8151 289.382405 
L 90.116763 286.903767 
L 92.720088 272.294185 
L 94.02175 272.690035 
L 95.323413 270.168688 
L 96.625075 259.977689 
L 97.926738 252.649348 
L 99.2284 256.864638 
L 100.530063 254.402771 
L 101.831725 244.989912 
L 103.133388 228.195187 
L 104.43505 242.064081 
L 105.736713 242.095585 
L 107.038375 236.841654 
L 108.340038 230.504257 
L 109.6417 223.270168 
L 110.943363 231.06782 
L 112.245025 234.871718 
L 113.546688 218.929152 
L 114.84835 208.329121 
L 116.150013 218.851132 
L 117.451675 208.160187 
L 118.753338 203.599562 
L 120.055 204.757964 
L 121.356663 205.080552 
L 122.658325 201.85827 
L 123.959988 200.280325 
L 125.26165 202.67915 
L 126.563313 184.581798 
L 127.864975 191.150308 
L 129.166638 184.173706 
L 130.4683 185.482624 
L 131.769963 174.346293 
L 133.071625 176.177938 
L 134.373288 174.550848 
L 135.67495 172.384403 
L 136.976612 168.415687 
L 138.278275 160.088814 
L 139.579938 164.456039 
L 140.8816 156.735553 
L 142.183263 157.635987 
L 143.484925 160.7055 
L 144.786587 161.737713 
L 146.08825 143.064417 
L 147.389913 142.964352 
L 149.993238 140.711377 
L 151.2949 138.385767 
L 152.596563 140.15669 
L 153.898225 125.466098 
L 155.199887 146.614334 
L 157.803213 124.155935 
L 159.104875 133.790779 
L 160.406538 128.675246 
L 161.7082 133.435068 
L 163.009862 134.426853 
L 164.311525 138.540283 
L 165.613188 119.361794 
L 166.91485 123.185216 
L 168.216513 127.405965 
L 169.518175 138.254364 
L 170.819838 119.759145 
L 172.1215 117.743627 
L 173.423162 126.520273 
L 174.724825 110.330886 
L 176.026488 109.82453 
L 177.32815 125.717921 
L 178.629813 118.667424 
L 179.931475 107.521317 
L 181.233137 127.483419 
L 182.5348 120.10155 
L 183.836463 114.010878 
L 185.138125 121.667762 
L 186.439787 100.81386 
L 187.74145 117.675725 
L 189.043113 137.549368 
L 190.344775 113.870072 
L 191.646438 128.505007 
L 192.9481 110.543072 
L 194.249763 103.662447 
L 195.551425 109.296637 
L 198.15475 119.077691 
L 199.456412 108.616514 
L 200.758075 94.033147 
L 202.059738 120.249333 
L 203.3614 89.968248 
L 204.663062 108.133382 
L 205.964725 102.83446 
L 207.266388 116.577589 
L 208.56805 109.004449 
L 209.869712 100.462239 
L 211.171375 95.133707 
L 212.473038 118.951144 
L 213.7747 103.018219 
L 215.076363 104.972431 
L 216.378025 131.33735 
L 217.679688 105.173879 
L 218.98135 91.969063 
L 220.283013 107.222679 
L 221.584675 102.431276 
L 222.886337 115.409541 
L 224.188 103.438173 
L 225.489663 94.460993 
L 226.791325 109.48097 
L 228.092987 84.144533 
L 229.39465 88.837994 
L 230.696313 87.951219 
L 231.997975 96.636126 
L 233.299638 102.480558 
L 234.6013 98.213537 
L 235.902963 110.354823 
L 237.204625 87.044059 
L 238.506288 104.283704 
L 239.80795 104.80319 
L 241.109612 106.161527 
L 242.411275 94.322463 
L 243.712938 101.245151 
L 245.0146 84.267753 
L 246.316262 92.353261 
L 247.617925 108.326966 
L 248.919588 94.07191 
L 250.22125 109.62651 
L 250.22125 109.62651 
" clip-path="url(#p6688c1bc1c)" style="fill: none; stroke: #5aa162; stroke-opacity: 0.9; stroke-width: 1.6; stroke-linecap: square"/>
   </g>
   <g id="line2d_51">
    <path d="M 56.273538 256.358137 
L 57.5752 256.743043 
L 58.876863 247.677668 
L 60.178525 246.19372 
L 61.480188 244.934068 
L 62.78185 236.471661 
L 64.083513 233.677298 
L 65.385175 230.146998 
L 66.686838 235.68814 
L 67.9885 228.482448 
L 69.290163 229.989932 
L 70.591825 232.117815 
L 71.893488 221.403584 
L 73.19515 228.280083 
L 74.496813 221.26793 
L 75.798475 217.584823 
L 77.100138 219.931187 
L 78.4018 225.27842 
L 79.703463 208.094607 
L 81.005125 222.321207 
L 82.306788 216.055601 
L 83.60845 203.122895 
L 84.910113 202.085135 
L 86.211775 204.393192 
L 87.513438 201.328349 
L 88.8151 194.809792 
L 90.116763 207.566443 
L 91.418425 207.516095 
L 92.720088 195.089089 
L 94.02175 175.049937 
L 95.323413 195.714673 
L 96.625075 179.376692 
L 99.2284 189.194135 
L 100.530063 183.96267 
L 101.831725 157.302559 
L 103.133388 173.456314 
L 104.43505 172.1081 
L 105.736713 167.268299 
L 107.038375 167.297668 
L 108.340038 164.232702 
L 109.6417 164.858955 
L 110.943363 167.452161 
L 112.245025 165.899182 
L 113.546688 162.897232 
L 114.84835 160.836566 
L 116.150013 149.129481 
L 117.451675 159.909839 
L 118.753338 155.871692 
L 120.055 148.022795 
L 121.356663 152.477151 
L 122.658325 169.517423 
L 123.959988 158.428919 
L 125.26165 140.130243 
L 126.563313 146.647428 
L 127.864975 145.124725 
L 129.166638 151.826774 
L 130.4683 141.087354 
L 131.769963 136.123224 
L 133.071625 143.930272 
L 134.373288 141.68277 
L 135.67495 128.252335 
L 136.976612 135.646576 
L 138.278275 136.344161 
L 139.579938 128.831633 
L 140.8816 139.13706 
L 142.183263 142.298899 
L 143.484925 138.233301 
L 144.786587 130.647909 
L 146.08825 124.060805 
L 147.389913 123.627535 
L 148.691575 123.447191 
L 149.993238 118.824125 
L 151.2949 130.681499 
L 152.596563 131.223365 
L 153.898225 116.822189 
L 155.199887 119.917691 
L 156.50155 132.060545 
L 157.803213 124.49002 
L 159.104875 134.283592 
L 160.406538 134.125909 
L 161.7082 130.176752 
L 163.009862 127.121879 
L 164.311525 124.578053 
L 165.613188 126.729751 
L 166.91485 126.365031 
L 168.216513 118.472422 
L 169.518175 107.984397 
L 172.1215 132.601378 
L 173.423162 115.304756 
L 174.724825 107.55439 
L 176.026488 101.596678 
L 178.629813 120.97854 
L 179.931475 105.725039 
L 181.233137 116.423113 
L 182.5348 108.123016 
L 183.836463 106.794231 
L 185.138125 107.877764 
L 186.439787 112.777616 
L 187.74145 93.522379 
L 189.043113 116.602126 
L 190.344775 101.093503 
L 191.646438 108.19139 
L 194.249763 114.9054 
L 195.551425 101.785028 
L 196.853088 104.897547 
L 198.15475 109.103806 
L 199.456412 93.342047 
L 200.758075 106.663956 
L 203.3614 117.728621 
L 204.663062 98.598679 
L 205.964725 103.124016 
L 207.266388 100.499478 
L 208.56805 98.65824 
L 209.869712 97.458215 
L 211.171375 102.275887 
L 212.473038 116.228166 
L 213.7747 89.10436 
L 215.076363 113.811474 
L 216.378025 95.880983 
L 217.679688 90.360861 
L 218.98135 98.528364 
L 220.283013 111.872669 
L 221.584675 99.604197 
L 222.886337 94.503682 
L 224.188 86.050248 
L 225.489663 95.774068 
L 226.791325 101.646304 
L 228.092987 101.087647 
L 229.39465 97.2655 
L 230.696313 106.730292 
L 231.997975 104.449133 
L 233.299638 100.339371 
L 234.6013 97.427339 
L 235.902963 99.990008 
L 237.204625 98.848052 
L 238.506288 95.333624 
L 239.80795 89.92572 
L 241.109612 90.207312 
L 242.411275 82.961624 
L 243.712938 100.345578 
L 245.0146 95.609073 
L 246.316262 94.494323 
L 247.617925 86.836177 
L 248.919588 81.387783 
L 250.22125 89.240954 
L 251.522912 95.908473 
L 252.824575 96.948907 
L 254.126238 108.343859 
L 255.4279 93.806236 
L 256.729563 103.67548 
L 258.031225 95.889941 
L 259.332887 95.833245 
L 260.63455 91.039064 
L 263.237875 114.15973 
L 264.539537 100.692391 
L 265.8412 95.468493 
L 267.142862 99.887227 
L 268.444525 114.876662 
L 269.746188 95.897438 
L 271.04785 100.211431 
L 272.349513 108.160624 
L 273.651175 88.868696 
L 274.952837 84.130595 
L 276.2545 102.752911 
L 277.556163 98.179806 
L 278.857825 89.235676 
L 280.159488 100.817213 
L 281.46115 89.090788 
L 282.762812 94.321664 
L 284.064475 82.42083 
L 285.366138 97.110826 
L 286.6678 95.895452 
L 287.969462 91.668347 
L 289.271125 96.572917 
L 290.572788 74.271891 
L 291.87445 97.984176 
L 293.176112 92.981008 
L 294.477775 89.784878 
L 295.779437 98.700541 
L 297.0811 86.656349 
L 298.382763 100.853252 
L 299.684425 106.815454 
L 300.986087 93.703107 
L 302.28775 95.295617 
L 303.589412 91.79292 
L 304.891075 82.816614 
L 306.192738 107.635533 
L 307.4944 92.102283 
L 308.796063 87.029619 
L 310.097725 98.970343 
L 311.399387 107.57944 
L 312.70105 81.330309 
L 314.002712 96.77068 
L 315.304375 107.817922 
L 316.606038 100.839152 
L 317.9077 94.552804 
L 319.209362 91.537446 
L 320.511025 77.706894 
L 321.812687 93.989114 
L 323.11435 105.621789 
L 324.416013 92.78782 
L 325.717675 93.084313 
L 327.019338 103.750849 
L 328.321 104.53294 
L 329.622662 81.292128 
L 330.924325 91.153956 
L 332.225987 95.279241 
L 333.52765 92.135233 
L 334.829313 98.002514 
L 336.130975 77.145003 
L 337.432637 95.767066 
L 338.7343 89.955536 
L 340.035962 89.294942 
L 341.337625 95.720754 
L 342.639288 72.646021 
L 343.94095 83.019658 
L 345.242613 87.61114 
L 346.544275 88.139785 
L 347.845937 94.329496 
L 349.1476 99.327037 
L 350.449262 98.242288 
L 351.750925 107.362975 
L 353.052588 96.868732 
L 354.35425 99.550216 
L 355.655912 78.514613 
L 356.957575 73.535055 
L 358.259237 102.931272 
L 359.5609 103.053427 
L 360.862563 106.603639 
L 362.164225 89.032139 
L 363.465888 85.27662 
L 364.76755 99.220474 
L 366.069212 94.589282 
L 367.370875 95.870962 
L 368.672537 94.011087 
L 369.9742 113.791503 
L 371.275863 96.376397 
L 372.577525 99.559614 
L 373.879188 97.966814 
L 375.18085 91.45876 
L 376.482512 92.647099 
L 377.784175 106.730147 
L 379.085838 106.910466 
L 380.3875 89.463472 
L 381.689163 91.129844 
L 382.990825 96.654727 
L 384.292487 90.89429 
L 385.59415 94.895459 
L 386.895812 102.021026 
L 388.197475 105.782929 
L 389.499138 82.998429 
L 390.8008 101.417793 
L 392.102463 82.86535 
L 393.404125 90.311982 
L 394.705787 83.211254 
L 396.00745 85.626427 
L 397.309112 94.304775 
L 398.610775 110.647758 
L 399.912438 111.201147 
L 401.2141 105.891828 
L 402.515762 95.846749 
L 403.817425 80.4399 
L 405.119087 92.592347 
L 406.42075 81.871322 
L 407.722413 78.567107 
L 409.024075 100.503509 
L 410.325738 75.249619 
L 411.6274 88.709034 
L 412.929062 105.613948 
L 412.929062 105.613948 
" clip-path="url(#p6688c1bc1c)" style="fill: none; stroke: #b6b221; stroke-opacity: 0.9; stroke-width: 1.6; stroke-linecap: square"/>
   </g>
   <g id="line2d_52">
    <path d="M 56.273538 256.041111 
L 57.5752 253.285845 
L 58.876863 246.353794 
L 60.178525 237.507304 
L 61.480188 238.985053 
L 62.78185 238.854638 
L 64.083513 234.146969 
L 65.385175 241.772532 
L 66.686838 230.735918 
L 67.9885 230.929998 
L 69.290163 229.665547 
L 70.591825 231.140247 
L 71.893488 224.689276 
L 73.19515 224.584677 
L 74.496813 224.886519 
L 75.798475 214.126425 
L 77.100138 221.068876 
L 78.4018 211.796199 
L 79.703463 216.758815 
L 81.005125 201.695786 
L 82.306788 217.393455 
L 83.60845 202.624945 
L 84.910113 210.050129 
L 86.211775 192.565641 
L 87.513438 194.088469 
L 88.8151 214.682056 
L 90.116763 197.231909 
L 91.418425 197.976619 
L 92.720088 179.995195 
L 94.02175 175.660679 
L 95.323413 182.664498 
L 96.625075 186.454045 
L 97.926738 182.943785 
L 99.2284 170.22166 
L 100.530063 175.875433 
L 101.831725 168.888856 
L 103.133388 179.761048 
L 104.43505 169.821657 
L 105.736713 160.930893 
L 107.038375 167.091368 
L 108.340038 157.810202 
L 109.6417 155.377069 
L 110.943363 151.884778 
L 112.245025 152.302873 
L 113.546688 148.577979 
L 114.84835 162.533212 
L 116.150013 152.565508 
L 117.451675 146.741177 
L 118.753338 139.55147 
L 120.055 136.897105 
L 121.356663 149.419717 
L 122.658325 133.083736 
L 123.959988 148.276029 
L 125.26165 134.905146 
L 126.563313 122.765374 
L 127.864975 137.736755 
L 129.166638 130.132258 
L 130.4683 139.727408 
L 131.769963 134.273885 
L 133.071625 133.513571 
L 134.373288 127.240682 
L 135.67495 136.544125 
L 136.976612 129.771799 
L 138.278275 135.416759 
L 139.579938 138.453477 
L 140.8816 113.589101 
L 142.183263 122.199449 
L 143.484925 127.553983 
L 144.786587 129.318222 
L 146.08825 132.389018 
L 147.389913 130.120325 
L 148.691575 122.406311 
L 149.993238 129.663838 
L 151.2949 123.991912 
L 152.596563 120.257648 
L 153.898225 110.528387 
L 155.199887 108.932705 
L 156.50155 109.54711 
L 157.803213 106.100415 
L 159.104875 118.787668 
L 160.406538 119.690582 
L 161.7082 111.961647 
L 163.009862 113.677157 
L 164.311525 112.174618 
L 165.613188 113.803802 
L 166.91485 118.432665 
L 168.216513 129.504297 
L 169.518175 121.657013 
L 170.819838 120.902724 
L 172.1215 124.451536 
L 173.423162 114.213287 
L 174.724825 95.308489 
L 176.026488 105.664075 
L 177.32815 99.538842 
L 178.629813 112.302982 
L 179.931475 98.745789 
L 181.233137 105.080386 
L 182.5348 110.653387 
L 183.836463 121.280751 
L 185.138125 106.444206 
L 186.439787 94.528306 
L 187.74145 120.740039 
L 189.043113 100.566361 
L 190.344775 115.811829 
L 191.646438 111.037697 
L 192.9481 94.799315 
L 194.249763 104.188772 
L 195.551425 101.401825 
L 196.853088 101.78363 
L 198.15475 100.400664 
L 199.456412 88.758884 
L 200.758075 80.688118 
L 202.059738 88.254318 
L 203.3614 89.044387 
L 204.663062 90.110738 
L 205.964725 100.758446 
L 207.266388 88.102821 
L 208.56805 101.245114 
L 209.869712 108.593405 
L 211.171375 85.679781 
L 212.473038 77.956915 
L 213.7747 90.682968 
L 215.076363 114.29697 
L 216.378025 92.881705 
L 217.679688 106.784878 
L 218.98135 117.107286 
L 220.283013 123.1981 
L 221.584675 106.073261 
L 222.886337 108.458452 
L 224.188 109.668298 
L 225.489663 108.57687 
L 226.791325 108.099374 
L 228.092987 128.495274 
L 229.39465 109.94216 
L 230.696313 113.159733 
L 231.997975 133.936849 
L 233.299638 123.773975 
L 234.6013 92.261728 
L 235.902963 104.345603 
L 237.204625 119.56587 
L 238.506288 86.996254 
L 239.80795 103.989957 
L 241.109612 106.890281 
L 242.411275 107.2004 
L 243.712938 91.834193 
L 245.0146 122.200549 
L 246.316262 105.850283 
L 247.617925 103.619273 
L 248.919588 108.485684 
L 250.22125 121.973932 
L 251.522912 104.464181 
L 252.824575 117.157766 
L 254.126238 93.259528 
L 255.4279 103.443053 
L 256.729563 121.916439 
L 258.031225 102.351106 
L 259.332887 88.438282 
L 260.63455 80.926758 
L 261.936213 80.960187 
L 263.237875 102.56409 
L 264.539537 112.339836 
L 265.8412 84.098719 
L 267.142862 124.164976 
L 268.444525 92.583027 
L 269.746188 96.488495 
L 271.04785 86.260671 
L 272.349513 90.72633 
L 273.651175 89.003654 
L 274.952837 126.48233 
L 276.2545 88.424865 
L 277.556163 97.68077 
L 278.857825 86.064561 
L 280.159488 89.34317 
L 281.46115 79.869603 
L 282.762812 99.685689 
L 284.064475 93.525809 
L 285.366138 104.882431 
L 286.6678 100.082148 
L 287.969462 105.270468 
L 289.271125 118.393727 
L 290.572788 88.194526 
L 291.87445 113.104566 
L 293.176112 95.553136 
L 294.477775 74.686222 
L 295.779437 82.342221 
L 297.0811 106.906744 
L 298.382763 91.404601 
L 299.684425 83.935473 
L 300.986087 96.480782 
L 302.28775 102.089526 
L 303.589412 81.340062 
L 304.891075 100.209043 
L 306.192738 84.309968 
L 307.4944 79.338531 
L 308.796063 92.556473 
L 310.097725 100.096104 
L 311.399387 80.865742 
L 312.70105 78.076643 
L 314.002712 79.006029 
L 315.304375 86.190161 
L 316.606038 77.961701 
L 317.9077 79.080813 
L 319.209362 72.16493 
L 320.511025 67.478791 
L 321.812687 76.809593 
L 323.11435 74.043033 
L 324.416013 87.262144 
L 325.717675 97.33293 
L 327.019338 79.340777 
L 328.321 100.934041 
L 329.622662 88.771482 
L 330.924325 112.530184 
L 332.225987 81.434181 
L 333.52765 66.266533 
L 334.829313 78.714296 
L 336.130975 116.359422 
L 337.432637 72.85572 
L 338.7343 88.254644 
L 340.035962 97.56826 
L 341.337625 74.909161 
L 342.639288 82.322434 
L 343.94095 84.872849 
L 345.242613 85.492592 
L 346.544275 75.708247 
L 347.845937 84.570287 
L 349.1476 80.12493 
L 350.449262 58.262711 
L 351.750925 81.795079 
L 353.052588 87.598731 
L 354.35425 67.979752 
L 355.655912 50.861975 
L 356.957575 84.68393 
L 358.259237 67.349399 
L 359.5609 94.400018 
L 360.862563 76.847104 
L 362.164225 57.314086 
L 363.465888 85.485742 
L 364.76755 84.211157 
L 366.069212 87.39514 
L 367.370875 70.703797 
L 368.672537 73.630453 
L 369.9742 58.561093 
L 371.275863 59.408247 
L 373.879188 79.789203 
L 375.18085 76.012386 
L 376.482512 74.054396 
L 377.784175 73.624677 
L 379.085838 67.87725 
L 380.3875 71.105041 
L 381.689163 70.701106 
L 382.990825 73.962179 
L 384.292487 87.423068 
L 385.59415 54.878189 
L 386.895812 66.24454 
L 388.197475 72.48488 
L 389.499138 61.368681 
L 390.8008 85.024294 
L 392.102463 97.002777 
L 393.404125 75.01557 
L 394.705787 79.029206 
L 396.00745 70.541143 
L 397.309112 83.27324 
L 398.610775 65.490171 
L 399.912438 85.483505 
L 401.2141 69.99039 
L 402.515762 84.154907 
L 403.817425 75.843094 
L 405.119087 64.533479 
L 406.42075 73.669098 
L 407.722413 58.829933 
L 409.024075 68.719068 
L 410.325738 68.544185 
L 411.6274 79.549217 
L 412.929062 106.401506 
L 414.230725 89.365097 
L 415.532387 75.617569 
L 416.83405 67.957083 
L 418.135713 70.742212 
L 419.437375 52.314515 
L 420.739037 52.405762 
L 422.0407 70.107048 
L 423.342362 65.997312 
L 424.644025 77.652535 
L 425.945688 65.780069 
L 427.24735 74.534388 
L 428.549013 61.83139 
L 429.850675 53.503236 
L 431.152337 65.868165 
L 432.454 51.141446 
L 433.755662 94.935875 
L 435.057325 89.817435 
L 436.358988 79.455605 
L 437.66065 78.698754 
L 438.962312 58.370117 
L 440.263975 69.945743 
L 441.565637 70.810134 
L 442.8673 76.330731 
L 444.168963 79.088017 
L 445.470625 109.086577 
L 446.772288 83.708714 
L 448.07395 85.830297 
L 449.375612 89.339501 
L 450.677275 63.699323 
L 451.978937 87.300788 
L 453.2806 66.117591 
L 454.582263 76.04119 
L 455.883925 76.762185 
L 457.185587 75.277437 
L 458.48725 69.668622 
L 459.788912 65.022884 
L 461.090575 73.782182 
L 462.392238 53.252859 
L 463.6939 83.507671 
L 464.995563 77.739661 
L 466.297225 56.899967 
L 467.598887 64.303338 
L 468.90055 57.309469 
L 470.202212 64.662515 
L 471.503875 54.543991 
L 472.805538 72.461294 
L 474.1072 65.272248 
L 475.408862 44.131705 
L 476.710525 62.633321 
L 478.012187 44.342361 
L 479.31385 50.107184 
L 480.615512 56.503556 
L 481.917175 44.221019 
L 483.218838 50.908208 
L 484.5205 50.253979 
L 485.822162 52.884415 
L 487.123825 60.099142 
L 488.425487 71.800404 
L 489.72715 74.994591 
L 491.028813 75.428404 
L 492.330475 84.245787 
L 493.632137 109.931958 
L 494.9338 102.250142 
L 496.235462 114.426911 
L 497.537125 86.382587 
L 498.838787 96.346486 
L 500.14045 84.819207 
L 501.442113 80.821038 
L 502.743775 87.566743 
L 504.045437 72.58033 
L 505.3471 99.62652 
L 506.648762 97.709419 
L 507.950425 64.916434 
L 509.252088 77.146316 
L 510.55375 91.404715 
L 511.855412 71.225974 
L 513.157075 96.320031 
L 514.458737 64.75945 
L 515.7604 87.895531 
L 517.062062 83.185455 
L 518.363725 105.161578 
L 519.665387 93.300106 
L 520.96705 117.482675 
L 522.268712 115.528126 
L 523.570375 89.235831 
L 524.872038 102.401527 
L 527.475363 112.506324 
L 528.777025 119.757182 
L 530.078688 110.307903 
L 531.38035 108.124207 
L 532.682012 112.849612 
L 533.983675 112.34275 
L 535.285337 108.799815 
L 536.587 101.323067 
L 537.888663 88.004846 
L 539.190325 122.286901 
L 540.491988 95.06274 
L 541.79365 120.005364 
L 543.095312 107.425536 
L 544.396975 100.404631 
L 545.698638 100.803684 
L 547.0003 101.595379 
L 548.301962 100.26609 
L 549.603625 78.918968 
L 550.905287 96.901254 
L 552.20695 85.050508 
L 553.508613 110.950526 
L 554.810275 104.271342 
L 556.111938 99.965299 
L 557.4136 99.671453 
L 558.715262 91.595273 
L 560.016925 81.064286 
L 561.318587 109.228084 
L 562.62025 107.771649 
L 563.921912 92.047884 
L 565.223575 73.823711 
L 566.525238 95.290119 
L 567.8269 81.19833 
L 569.128563 69.621839 
L 570.430225 107.236678 
L 571.731888 110.974561 
L 573.03355 101.696693 
L 574.335212 100.240146 
L 575.636875 120.853435 
L 575.636875 120.853435 
" clip-path="url(#p6688c1bc1c)" style="fill: none; stroke: #f8c214; stroke-opacity: 0.9; stroke-width: 1.6; stroke-linecap: square"/>
   </g>
   <g id="line2d_53">
    <path d="M 56.273538 265.42332 
L 57.5752 265.394405 
L 58.876863 261.976642 
L 60.178525 262.174993 
L 61.480188 261.961405 
L 62.78185 259.325215 
L 64.083513 257.548049 
L 65.385175 256.188828 
L 66.686838 254.385228 
L 69.290163 253.964237 
L 70.591825 251.957808 
L 71.893488 251.639627 
L 73.19515 249.238778 
L 74.496813 248.528554 
L 75.798475 247.066105 
L 77.100138 247.466557 
L 78.4018 245.215424 
L 79.703463 244.478014 
L 81.005125 246.974878 
L 82.306788 244.755243 
L 84.910113 242.918756 
L 86.211775 241.283172 
L 87.513438 242.646561 
L 88.8151 238.910226 
L 90.116763 235.889241 
L 91.418425 238.902573 
L 92.720088 237.469691 
L 94.02175 237.979643 
L 95.323413 234.99442 
L 96.625075 237.250715 
L 97.926738 237.465869 
L 99.2284 232.337196 
L 100.530063 241.614253 
L 101.831725 232.938706 
L 103.133388 234.123695 
L 104.43505 234.165312 
L 105.736713 233.700903 
L 107.038375 233.660164 
L 108.340038 233.483089 
L 109.6417 234.618877 
L 110.943363 235.535952 
L 112.245025 232.978007 
L 113.546688 232.314237 
L 114.84835 236.382994 
L 116.150013 232.831503 
L 117.451675 232.898115 
L 118.753338 230.989831 
L 120.055 232.356016 
L 121.356663 235.391532 
L 122.658325 233.509414 
L 123.959988 233.024363 
L 125.26165 234.095269 
L 126.563313 233.581793 
L 127.864975 232.729209 
L 129.166638 230.404758 
L 130.4683 233.362785 
L 131.769963 230.243441 
L 133.071625 232.061583 
L 134.373288 230.498056 
L 135.67495 231.286891 
L 136.976612 231.238768 
L 138.278275 230.371702 
L 139.579938 231.683154 
L 140.8816 229.671697 
L 142.183263 232.277451 
L 143.484925 237.337012 
L 144.786587 230.632001 
L 146.08825 231.144699 
L 147.389913 232.789469 
L 148.691575 229.65199 
L 149.993238 233.825575 
L 151.2949 226.851296 
L 152.596563 232.737281 
L 153.898225 228.656861 
L 155.199887 229.441295 
L 156.50155 232.539236 
L 157.803213 227.863706 
L 159.104875 230.877914 
L 160.406538 230.582182 
L 161.7082 233.032945 
L 163.009862 229.447685 
L 165.613188 232.795207 
L 168.216513 232.493945 
L 169.518175 232.891004 
L 170.819838 228.359684 
L 172.1215 232.436247 
L 173.423162 230.310246 
L 174.724825 232.606035 
L 176.026488 229.465425 
L 177.32815 228.323499 
L 178.629813 231.873401 
L 179.931475 228.139122 
L 181.233137 226.863847 
L 182.5348 228.80002 
L 183.836463 233.076385 
L 185.138125 227.90182 
L 186.439787 228.936649 
L 187.74145 229.637801 
L 189.043113 225.516312 
L 190.344775 228.120766 
L 191.646438 228.211738 
L 192.9481 225.289573 
L 194.249763 225.605934 
L 195.551425 230.376939 
L 196.853088 230.244501 
L 198.15475 231.908264 
L 199.456412 229.454032 
L 200.758075 225.714259 
L 202.059738 228.829566 
L 203.3614 229.274247 
L 204.663062 223.177692 
L 205.964725 227.704413 
L 207.266388 229.343503 
L 208.56805 224.09672 
L 209.869712 229.991185 
L 211.171375 229.300778 
L 212.473038 231.11058 
L 213.7747 227.977374 
L 215.076363 224.293956 
L 216.378025 226.414885 
L 217.679688 231.061984 
L 218.98135 228.259202 
L 220.283013 229.78604 
L 221.584675 230.647588 
L 222.886337 224.337137 
L 224.188 228.846142 
L 225.489663 226.451734 
L 226.791325 223.329497 
L 228.092987 228.008138 
L 229.39465 224.003601 
L 230.696313 231.050594 
L 231.997975 223.163726 
L 233.299638 227.429465 
L 234.6013 224.92641 
L 235.902963 228.421997 
L 237.204625 224.659047 
L 238.506288 230.892253 
L 239.80795 229.119232 
L 241.109612 225.230944 
L 242.411275 230.658905 
L 243.712938 227.352848 
L 245.0146 225.322421 
L 246.316262 231.260527 
L 246.316262 231.260527 
" clip-path="url(#p6688c1bc1c)" style="fill: none; stroke: #fde90e; stroke-opacity: 0.9; stroke-width: 1.6; stroke-linecap: square"/>
   </g>
   <g id="patch_3">
    <path d="M 54.971875 338.1 
L 54.971875 7.2 
" style="fill: none; stroke: #303030; stroke-width: 1.6; stroke-linejoin: miter; stroke-linecap: square"/>
   </g>
   <g id="patch_4">
    <path d="M 575.636875 338.1 
L 575.636875 7.2 
" style="fill: none; stroke: #303030; stroke-width: 1.6; stroke-linejoin: miter; stroke-linecap: square"/>
   </g>
   <g id="patch_5">
    <path d="M 54.971875 338.1 
L 575.636875 338.1 
" style="fill: none; stroke: #303030; stroke-width: 1.6; stroke-linejoin: miter; stroke-linecap: square"/>
   </g>
   <g id="patch_6">
    <path d="M 54.971875 7.2 
L 575.636875 7.2 
" style="fill: none; stroke: #303030; stroke-width: 1.6; stroke-linejoin: miter; stroke-linecap: square"/>
   </g>
   <g id="legend_1">
    <g id="line2d_54">
     <path d="M 294.49625 279.465625 
L 304.49625 279.465625 
L 314.49625 279.465625 
" style="fill: none; stroke: #303030; stroke-opacity: 0.9; stroke-width: 1.6; stroke-linecap: square"/>
    </g>
    <g id="text_21">
     <!-- QADAPT -->
     <g transform="translate(322.49625 282.965625) scale(0.1 -0.1)">
      <defs>
       <path id="DejaVuSans-51" d="M 2522 4238 
Q 1834 4238 1429 3725 
Q 1025 3213 1025 2328 
Q 1025 1447 1429 934 
Q 1834 422 2522 422 
Q 3209 422 3611 934 
Q 4013 1447 4013 2328 
Q 4013 3213 3611 3725 
Q 3209 4238 2522 4238 
z
M 3406 84 
L 4238 -825 
L 3475 -825 
L 2784 -78 
Q 2681 -84 2626 -87 
Q 2572 -91 2522 -91 
Q 1538 -91 948 567 
Q 359 1225 359 2328 
Q 359 3434 948 4092 
Q 1538 4750 2522 4750 
Q 3503 4750 4090 4092 
Q 4678 3434 4678 2328 
Q 4678 1516 4351 937 
Q 4025 359 3406 84 
z
" transform="scale(0.015625)"/>
       <path id="DejaVuSans-41" d="M 2188 4044 
L 1331 1722 
L 3047 1722 
L 2188 4044 
z
M 1831 4666 
L 2547 4666 
L 4325 0 
L 3669 0 
L 3244 1197 
L 1141 1197 
L 716 0 
L 50 0 
L 1831 4666 
z
" transform="scale(0.015625)"/>
       <path id="DejaVuSans-44" d="M 1259 4147 
L 1259 519 
L 2022 519 
Q 2988 519 3436 956 
Q 3884 1394 3884 2338 
Q 3884 3275 3436 3711 
Q 2988 4147 2022 4147 
L 1259 4147 
z
M 628 4666 
L 1925 4666 
Q 3281 4666 3915 4102 
Q 4550 3538 4550 2338 
Q 4550 1131 3912 565 
Q 3275 0 1925 0 
L 628 0 
L 628 4666 
z
" transform="scale(0.015625)"/>
       <path id="DejaVuSans-50" d="M 1259 4147 
L 1259 2394 
L 2053 2394 
Q 2494 2394 2734 2622 
Q 2975 2850 2975 3272 
Q 2975 3691 2734 3919 
Q 2494 4147 2053 4147 
L 1259 4147 
z
M 628 4666 
L 2053 4666 
Q 2838 4666 3239 4311 
Q 3641 3956 3641 3272 
Q 3641 2581 3239 2228 
Q 2838 1875 2053 1875 
L 1259 1875 
L 1259 0 
L 628 0 
L 628 4666 
z
" transform="scale(0.015625)"/>
       <path id="DejaVuSans-54" d="M -19 4666 
L 3928 4666 
L 3928 4134 
L 2272 4134 
L 2272 0 
L 1638 0 
L 1638 4134 
L -19 4134 
L -19 4666 
z
" transform="scale(0.015625)"/>
      </defs>
      <use xlink:href="#DejaVuSans-51"/>
      <use xlink:href="#DejaVuSans-41" transform="translate(78.710938 0)"/>
      <use xlink:href="#DejaVuSans-44" transform="translate(147.119141 0)"/>
      <use xlink:href="#DejaVuSans-41" transform="translate(222.371094 0)"/>
      <use xlink:href="#DejaVuSans-50" transform="translate(290.779297 0)"/>
      <use xlink:href="#DejaVuSans-54" transform="translate(351.082031 0)"/>
     </g>
    </g>
    <g id="line2d_55">
     <path d="M 294.49625 294.14375 
L 304.49625 294.14375 
L 314.49625 294.14375 
" style="fill: none; stroke: #423d84; stroke-opacity: 0.9; stroke-width: 1.6; stroke-linecap: square"/>
    </g>
    <g id="text_22">
     <!-- Nature CNN backbone -->
     <g transform="translate(322.49625 297.64375) scale(0.1 -0.1)">
      <defs>
       <path id="DejaVuSans-4e" d="M 628 4666 
L 1478 4666 
L 3547 763 
L 3547 4666 
L 4159 4666 
L 4159 0 
L 3309 0 
L 1241 3903 
L 1241 0 
L 628 0 
L 628 4666 
z
" transform="scale(0.015625)"/>
       <path id="DejaVuSans-61" d="M 2194 1759 
Q 1497 1759 1228 1600 
Q 959 1441 959 1056 
Q 959 750 1161 570 
Q 1363 391 1709 391 
Q 2188 391 2477 730 
Q 2766 1069 2766 1631 
L 2766 1759 
L 2194 1759 
z
M 3341 1997 
L 3341 0 
L 2766 0 
L 2766 531 
Q 2569 213 2275 61 
Q 1981 -91 1556 -91 
Q 1019 -91 701 211 
Q 384 513 384 1019 
Q 384 1609 779 1909 
Q 1175 2209 1959 2209 
L 2766 2209 
L 2766 2266 
Q 2766 2663 2505 2880 
Q 2244 3097 1772 3097 
Q 1472 3097 1187 3025 
Q 903 2953 641 2809 
L 641 3341 
Q 956 3463 1253 3523 
Q 1550 3584 1831 3584 
Q 2591 3584 2966 3190 
Q 3341 2797 3341 1997 
z
" transform="scale(0.015625)"/>
       <path id="DejaVuSans-43" d="M 4122 4306 
L 4122 3641 
Q 3803 3938 3442 4084 
Q 3081 4231 2675 4231 
Q 1875 4231 1450 3742 
Q 1025 3253 1025 2328 
Q 1025 1406 1450 917 
Q 1875 428 2675 428 
Q 3081 428 3442 575 
Q 3803 722 4122 1019 
L 4122 359 
Q 3791 134 3420 21 
Q 3050 -91 2638 -91 
Q 1578 -91 968 557 
Q 359 1206 359 2328 
Q 359 3453 968 4101 
Q 1578 4750 2638 4750 
Q 3056 4750 3426 4639 
Q 3797 4528 4122 4306 
z
" transform="scale(0.015625)"/>
       <path id="DejaVuSans-62" d="M 3116 1747 
Q 3116 2381 2855 2742 
Q 2594 3103 2138 3103 
Q 1681 3103 1420 2742 
Q 1159 2381 1159 1747 
Q 1159 1113 1420 752 
Q 1681 391 2138 391 
Q 2594 391 2855 752 
Q 3116 1113 3116 1747 
z
M 1159 2969 
Q 1341 3281 1617 3432 
Q 1894 3584 2278 3584 
Q 2916 3584 3314 3078 
Q 3713 2572 3713 1747 
Q 3713 922 3314 415 
Q 2916 -91 2278 -91 
Q 1894 -91 1617 61 
Q 1341 213 1159 525 
L 1159 0 
L 581 0 
L 581 4863 
L 1159 4863 
L 1159 2969 
z
" transform="scale(0.015625)"/>
       <path id="DejaVuSans-6b" d="M 581 4863 
L 1159 4863 
L 1159 1991 
L 2875 3500 
L 3609 3500 
L 1753 1863 
L 3688 0 
L 2938 0 
L 1159 1709 
L 1159 0 
L 581 0 
L 581 4863 
z
" transform="scale(0.015625)"/>
      </defs>
      <use xlink:href="#DejaVuSans-4e"/>
      <use xlink:href="#DejaVuSans-61" transform="translate(74.804688 0)"/>
      <use xlink:href="#DejaVuSans-74" transform="translate(136.083984 0)"/>
      <use xlink:href="#DejaVuSans-75" transform="translate(175.292969 0)"/>
      <use xlink:href="#DejaVuSans-72" transform="translate(238.671875 0)"/>
      <use xlink:href="#DejaVuSans-65" transform="translate(277.535156 0)"/>
      <use xlink:href="#DejaVuSans-20" transform="translate(339.058594 0)"/>
      <use xlink:href="#DejaVuSans-43" transform="translate(370.845703 0)"/>
      <use xlink:href="#DejaVuSans-4e" transform="translate(440.669922 0)"/>
      <use xlink:href="#DejaVuSans-4e" transform="translate(515.474609 0)"/>
      <use xlink:href="#DejaVuSans-20" transform="translate(590.279297 0)"/>
      <use xlink:href="#DejaVuSans-62" transform="translate(622.066406 0)"/>
      <use xlink:href="#DejaVuSans-61" transform="translate(685.542969 0)"/>
      <use xlink:href="#DejaVuSans-63" transform="translate(746.822266 0)"/>
      <use xlink:href="#DejaVuSans-6b" transform="translate(801.802734 0)"/>
      <use xlink:href="#DejaVuSans-62" transform="translate(859.712891 0)"/>
      <use xlink:href="#DejaVuSans-6f" transform="translate(923.189453 0)"/>
      <use xlink:href="#DejaVuSans-6e" transform="translate(984.371094 0)"/>
      <use xlink:href="#DejaVuSans-65" transform="translate(1047.75 0)"/>
     </g>
    </g>
    <g id="line2d_56">
     <path d="M 294.49625 308.821875 
L 304.49625 308.821875 
L 314.49625 308.821875 
" style="fill: none; stroke: #3c55c2; stroke-opacity: 0.9; stroke-width: 1.6; stroke-linecap: square"/>
    </g>
    <g id="text_23">
     <!-- LSTM memory -->
     <g transform="translate(322.49625 312.321875) scale(0.1 -0.1)">
      <defs>
       <path id="DejaVuSans-4c" d="M 628 4666 
L 1259 4666 
L 1259 531 
L 3531 531 
L 3531 0 
L 628 0 
L 628 4666 
z
" transform="scale(0.015625)"/>
       <path id="DejaVuSans-53" d="M 3425 4513 
L 3425 3897 
Q 3066 4069 2747 4153 
Q 2428 4238 2131 4238 
Q 1616 4238 1336 4038 
Q 1056 3838 1056 3469 
Q 1056 3159 1242 3001 
Q 1428 2844 1947 2747 
L 2328 2669 
Q 3034 2534 3370 2195 
Q 3706 1856 3706 1288 
Q 3706 609 3251 259 
Q 2797 -91 1919 -91 
Q 1588 -91 1214 -16 
Q 841 59 441 206 
L 441 856 
Q 825 641 1194 531 
Q 1563 422 1919 422 
Q 2459 422 2753 634 
Q 3047 847 3047 1241 
Q 3047 1584 2836 1778 
Q 2625 1972 2144 2069 
L 1759 2144 
Q 1053 2284 737 2584 
Q 422 2884 422 3419 
Q 422 4038 858 4394 
Q 1294 4750 2059 4750 
Q 2388 4750 2728 4690 
Q 3069 4631 3425 4513 
z
" transform="scale(0.015625)"/>
       <path id="DejaVuSans-4d" d="M 628 4666 
L 1569 4666 
L 2759 1491 
L 3956 4666 
L 4897 4666 
L 4897 0 
L 4281 0 
L 4281 4097 
L 3078 897 
L 2444 897 
L 1241 4097 
L 1241 0 
L 628 0 
L 628 4666 
z
" transform="scale(0.015625)"/>
       <path id="DejaVuSans-6d" d="M 3328 2828 
Q 3544 3216 3844 3400 
Q 4144 3584 4550 3584 
Q 5097 3584 5394 3201 
Q 5691 2819 5691 2113 
L 5691 0 
L 5113 0 
L 5113 2094 
Q 5113 2597 4934 2840 
Q 4756 3084 4391 3084 
Q 3944 3084 3684 2787 
Q 3425 2491 3425 1978 
L 3425 0 
L 2847 0 
L 2847 2094 
Q 2847 2600 2669 2842 
Q 2491 3084 2119 3084 
Q 1678 3084 1418 2786 
Q 1159 2488 1159 1978 
L 1159 0 
L 581 0 
L 581 3500 
L 1159 3500 
L 1159 2956 
Q 1356 3278 1631 3431 
Q 1906 3584 2284 3584 
Q 2666 3584 2933 3390 
Q 3200 3197 3328 2828 
z
" transform="scale(0.015625)"/>
       <path id="DejaVuSans-79" d="M 2059 -325 
Q 1816 -950 1584 -1140 
Q 1353 -1331 966 -1331 
L 506 -1331 
L 506 -850 
L 844 -850 
Q 1081 -850 1212 -737 
Q 1344 -625 1503 -206 
L 1606 56 
L 191 3500 
L 800 3500 
L 1894 763 
L 2988 3500 
L 3597 3500 
L 2059 -325 
z
" transform="scale(0.015625)"/>
      </defs>
      <use xlink:href="#DejaVuSans-4c"/>
      <use xlink:href="#DejaVuSans-53" transform="translate(55.712891 0)"/>
      <use xlink:href="#DejaVuSans-54" transform="translate(119.189453 0)"/>
      <use xlink:href="#DejaVuSans-4d" transform="translate(180.273438 0)"/>
      <use xlink:href="#DejaVuSans-20" transform="translate(266.552734 0)"/>
      <use xlink:href="#DejaVuSans-6d" transform="translate(298.339844 0)"/>
      <use xlink:href="#DejaVuSans-65" transform="translate(395.751953 0)"/>
      <use xlink:href="#DejaVuSans-6d" transform="translate(457.275391 0)"/>
      <use xlink:href="#DejaVuSans-6f" transform="translate(554.6875 0)"/>
      <use xlink:href="#DejaVuSans-72" transform="translate(615.869141 0)"/>
      <use xlink:href="#DejaVuSans-79" transform="translate(656.982422 0)"/>
     </g>
    </g>
    <g id="line2d_57">
     <path d="M 294.49625 323.5 
L 304.49625 323.5 
L 314.49625 323.5 
" style="fill: none; stroke: #2281a5; stroke-opacity: 0.9; stroke-width: 1.6; stroke-linecap: square"/>
    </g>
    <g id="text_24">
     <!-- Transformer memory -->
     <g transform="translate(322.49625 327) scale(0.1 -0.1)">
      <defs>
       <path id="DejaVuSans-66" d="M 2375 4863 
L 2375 4384 
L 1825 4384 
Q 1516 4384 1395 4259 
Q 1275 4134 1275 3809 
L 1275 3500 
L 2222 3500 
L 2222 3053 
L 1275 3053 
L 1275 0 
L 697 0 
L 697 3053 
L 147 3053 
L 147 3500 
L 697 3500 
L 697 3744 
Q 697 4328 969 4595 
Q 1241 4863 1831 4863 
L 2375 4863 
z
" transform="scale(0.015625)"/>
      </defs>
      <use xlink:href="#DejaVuSans-54"/>
      <use xlink:href="#DejaVuSans-72" transform="translate(46.333984 0)"/>
      <use xlink:href="#DejaVuSans-61" transform="translate(87.447266 0)"/>
      <use xlink:href="#DejaVuSans-6e" transform="translate(148.726562 0)"/>
      <use xlink:href="#DejaVuSans-73" transform="translate(212.105469 0)"/>
      <use xlink:href="#DejaVuSans-66" transform="translate(264.205078 0)"/>
      <use xlink:href="#DejaVuSans-6f" transform="translate(299.410156 0)"/>
      <use xlink:href="#DejaVuSans-72" transform="translate(360.591797 0)"/>
      <use xlink:href="#DejaVuSans-6d" transform="translate(399.955078 0)"/>
      <use xlink:href="#DejaVuSans-65" transform="translate(497.367188 0)"/>
      <use xlink:href="#DejaVuSans-72" transform="translate(558.890625 0)"/>
      <use xlink:href="#DejaVuSans-20" transform="translate(600.003906 0)"/>
      <use xlink:href="#DejaVuSans-6d" transform="translate(631.791016 0)"/>
      <use xlink:href="#DejaVuSans-65" transform="translate(729.203125 0)"/>
      <use xlink:href="#DejaVuSans-6d" transform="translate(790.726562 0)"/>
      <use xlink:href="#DejaVuSans-6f" transform="translate(888.138672 0)"/>
      <use xlink:href="#DejaVuSans-72" transform="translate(949.320312 0)"/>
      <use xlink:href="#DejaVuSans-79" transform="translate(990.433594 0)"/>
     </g>
    </g>
    <g id="line2d_58">
     <path d="M 453.4275 279.465625 
L 463.4275 279.465625 
L 473.4275 279.465625 
" style="fill: none; stroke: #5aa162; stroke-opacity: 0.9; stroke-width: 1.6; stroke-linecap: square"/>
    </g>
    <g id="text_25">
     <!-- $\gamma &gt; 0$ -->
     <g transform="translate(481.4275 282.965625) scale(0.1 -0.1)">
      <defs>
       <path id="DejaVuSans-Oblique-3b3" d="M 1491 2950 
L 1838 788 
L 3456 3500 
L 4066 3500 
L 1972 0 
L 1713 -1331 
L 1138 -1331 
L 1397 0 
L 988 2613 
Q 925 3006 628 3006 
L 475 3006 
L 569 3500 
L 788 3500 
Q 1403 3500 1491 2950 
z
" transform="scale(0.015625)"/>
       <path id="DejaVuSans-3e" d="M 678 3150 
L 678 3719 
L 4684 2266 
L 4684 1747 
L 678 294 
L 678 863 
L 3897 2003 
L 678 3150 
z
" transform="scale(0.015625)"/>
      </defs>
      <use xlink:href="#DejaVuSans-Oblique-3b3" transform="translate(0 0.78125)"/>
      <use xlink:href="#DejaVuSans-3e" transform="translate(78.662109 0.78125)"/>
      <use xlink:href="#DejaVuSans-30" transform="translate(181.933594 0.78125)"/>
     </g>
    </g>
    <g id="line2d_59">
     <path d="M 453.4275 294.164062 
L 463.4275 294.164062 
L 473.4275 294.164062 
" style="fill: none; stroke: #b6b221; stroke-opacity: 0.9; stroke-width: 1.6; stroke-linecap: square"/>
    </g>
    <g id="text_26">
     <!-- IPPO -->
     <g transform="translate(481.4275 297.664062) scale(0.1 -0.1)">
      <defs>
       <path id="DejaVuSans-49" d="M 628 4666 
L 1259 4666 
L 1259 0 
L 628 0 
L 628 4666 
z
" transform="scale(0.015625)"/>
       <path id="DejaVuSans-4f" d="M 2522 4238 
Q 1834 4238 1429 3725 
Q 1025 3213 1025 2328 
Q 1025 1447 1429 934 
Q 1834 422 2522 422 
Q 3209 422 3611 934 
Q 4013 1447 4013 2328 
Q 4013 3213 3611 3725 
Q 3209 4238 2522 4238 
z
M 2522 4750 
Q 3503 4750 4090 4092 
Q 4678 3434 4678 2328 
Q 4678 1225 4090 567 
Q 3503 -91 2522 -91 
Q 1538 -91 948 565 
Q 359 1222 359 2328 
Q 359 3434 948 4092 
Q 1538 4750 2522 4750 
z
" transform="scale(0.015625)"/>
      </defs>
      <use xlink:href="#DejaVuSans-49"/>
      <use xlink:href="#DejaVuSans-50" transform="translate(29.492188 0)"/>
      <use xlink:href="#DejaVuSans-50" transform="translate(89.794922 0)"/>
      <use xlink:href="#DejaVuSans-4f" transform="translate(150.097656 0)"/>
     </g>
    </g>
    <g id="line2d_60">
     <path d="M 453.4275 308.842187 
L 463.4275 308.842187 
L 473.4275 308.842187 
" style="fill: none; stroke: #f8c214; stroke-opacity: 0.9; stroke-width: 1.6; stroke-linecap: square"/>
    </g>
    <g id="text_27">
     <!-- MAPPO -->
     <g transform="translate(481.4275 312.342187) scale(0.1 -0.1)">
      <use xlink:href="#DejaVuSans-4d"/>
      <use xlink:href="#DejaVuSans-41" transform="translate(86.279297 0)"/>
      <use xlink:href="#DejaVuSans-50" transform="translate(154.6875 0)"/>
      <use xlink:href="#DejaVuSans-50" transform="translate(214.990234 0)"/>
      <use xlink:href="#DejaVuSans-4f" transform="translate(275.292969 0)"/>
     </g>
    </g>
    <g id="line2d_61">
     <path d="M 453.4275 323.520312 
L 463.4275 323.520312 
L 473.4275 323.520312 
" style="fill: none; stroke: #fde90e; stroke-opacity: 0.9; stroke-width: 1.6; stroke-linecap: square"/>
    </g>
    <g id="text_28">
     <!-- single-agent PPO -->
     <g transform="translate(481.4275 327.020312) scale(0.1 -0.1)">
      <defs>
       <path id="DejaVuSans-67" d="M 2906 1791 
Q 2906 2416 2648 2759 
Q 2391 3103 1925 3103 
Q 1463 3103 1205 2759 
Q 947 2416 947 1791 
Q 947 1169 1205 825 
Q 1463 481 1925 481 
Q 2391 481 2648 825 
Q 2906 1169 2906 1791 
z
M 3481 434 
Q 3481 -459 3084 -895 
Q 2688 -1331 1869 -1331 
Q 1566 -1331 1297 -1286 
Q 1028 -1241 775 -1147 
L 775 -588 
Q 1028 -725 1275 -790 
Q 1522 -856 1778 -856 
Q 2344 -856 2625 -561 
Q 2906 -266 2906 331 
L 2906 616 
Q 2728 306 2450 153 
Q 2172 0 1784 0 
Q 1141 0 747 490 
Q 353 981 353 1791 
Q 353 2603 747 3093 
Q 1141 3584 1784 3584 
Q 2172 3584 2450 3431 
Q 2728 3278 2906 2969 
L 2906 3500 
L 3481 3500 
L 3481 434 
z
" transform="scale(0.015625)"/>
       <path id="DejaVuSans-6c" d="M 603 4863 
L 1178 4863 
L 1178 0 
L 603 0 
L 603 4863 
z
" transform="scale(0.015625)"/>
       <path id="DejaVuSans-2d" d="M 313 2009 
L 1997 2009 
L 1997 1497 
L 313 1497 
L 313 2009 
z
" transform="scale(0.015625)"/>
      </defs>
      <use xlink:href="#DejaVuSans-73"/>
      <use xlink:href="#DejaVuSans-69" transform="translate(52.099609 0)"/>
      <use xlink:href="#DejaVuSans-6e" transform="translate(79.882812 0)"/>
      <use xlink:href="#DejaVuSans-67" transform="translate(143.261719 0)"/>
      <use xlink:href="#DejaVuSans-6c" transform="translate(206.738281 0)"/>
      <use xlink:href="#DejaVuSans-65" transform="translate(234.521484 0)"/>
      <use xlink:href="#DejaVuSans-2d" transform="translate(296.044922 0)"/>
      <use xlink:href="#DejaVuSans-61" transform="translate(332.128906 0)"/>
      <use xlink:href="#DejaVuSans-67" transform="translate(393.408203 0)"/>
      <use xlink:href="#DejaVuSans-65" transform="translate(456.884766 0)"/>
      <use xlink:href="#DejaVuSans-6e" transform="translate(518.408203 0)"/>
      <use xlink:href="#DejaVuSans-74" transform="translate(581.787109 0)"/>
      <use xlink:href="#DejaVuSans-20" transform="translate(620.996094 0)"/>
      <use xlink:href="#DejaVuSans-50" transform="translate(652.783203 0)"/>
      <use xlink:href="#DejaVuSans-50" transform="translate(713.085938 0)"/>
      <use xlink:href="#DejaVuSans-4f" transform="translate(773.388672 0)"/>
     </g>
    </g>
   </g>
  </g>
 </g>
 <defs>
  <clipPath id="p6688c1bc1c">
   <rect x="54.971875" y="7.2" width="520.665" height="330.9"/>
  </clipPath>
 </defs>
</svg>
